<svg width="438" height="345" viewBox="0 0 438 345" fill="none" xmlns="http://www.w3.org/2000/svg">
<path d="M417.269 62.6543L417.22 299.376C417.22 314.218 402.341 326.362 384.155 326.362H53.5099C35.3244 326.362 20.4453 314.218 20.4453 299.376L20.4949 62.6543H417.269Z" fill="#F1F2FF"/>
<path d="M417.22 40.9417L417.269 62.6542H20.4867L20.4453 40.9417C20.4453 30.7214 25.1643 22.4434 43.4366 22.4434H395.118C413.307 22.4434 417.22 30.7676 417.22 40.9417Z" fill="#595BD4"/>
<path d="M56.6892 326.362H43.0272C30.6071 326.362 20.4453 314.215 20.4453 299.367L20.4679 62.6543H34.1299L34.1073 299.367C34.1073 314.215 44.2692 326.362 56.6892 326.362Z" fill="#DFE0FF"/>
<path d="M56.6892 22.4434C44.2127 22.4434 34.1073 30.7119 34.1073 40.9205L34.1299 62.6542H20.4679L20.4453 40.9159C20.4453 30.7072 25.3593 22.4435 37.7793 22.4435L56.6892 22.4434Z" fill="#2E2E4B"/>
<path d="M113.063 120.069C114.1 119.907 115.035 119.471 115.713 118.833C116.391 118.195 116.77 117.394 116.787 116.562V100.557C116.787 98.395 114.359 96.6289 111.642 96.96C66.9953 102.323 38.9651 138.217 53.294 172.032C54.1612 174.078 57.25 174.961 59.6863 173.98L77.8226 166.669C78.7549 166.277 79.4872 165.645 79.8963 164.879C80.3054 164.113 80.3664 163.259 80.069 162.462C73.9079 143.781 88.7076 124.406 113.063 120.062V120.069Z" fill="#FDBA4D"/>
<path d="M371.636 194.011L368.275 206.731C368.138 207.209 367.841 207.65 367.414 208.007C366.988 208.365 366.447 208.626 365.849 208.764C365.251 208.901 364.616 208.911 364.012 208.791C363.407 208.671 362.855 208.426 362.411 208.081L358.587 205.153L328.922 228.872C328.388 229.317 327.675 229.604 326.903 229.685C326.132 229.765 325.348 229.634 324.685 229.314L279.898 208.796L235.994 245.105C235.676 245.365 235.296 245.573 234.875 245.717C234.454 245.862 234.001 245.94 233.542 245.947C233.083 245.954 232.627 245.889 232.2 245.758C231.772 245.626 231.382 245.43 231.051 245.179C230.721 244.929 230.456 244.63 230.272 244.299C230.088 243.969 229.989 243.613 229.98 243.252C229.971 242.891 230.053 242.532 230.22 242.196C230.388 241.86 230.638 241.553 230.956 241.293L276.776 203.439C277.312 202.985 278.028 202.688 278.806 202.596C279.585 202.504 280.38 202.623 281.062 202.932L325.85 223.483L353.599 201.303L349.726 198.303C349.285 197.956 348.971 197.523 348.815 197.049C348.659 196.574 348.668 196.076 348.84 195.605C349.012 195.134 349.341 194.708 349.793 194.37C350.245 194.033 350.803 193.797 351.41 193.686L367.432 190.829C369.91 190.349 372.14 192.07 371.636 194.011Z" fill="#595BD4"/>
<path d="M249.852 271.453V299.698C249.86 300.325 249.709 300.946 249.407 301.526C249.106 302.107 248.66 302.634 248.097 303.077C247.533 303.52 246.862 303.87 246.124 304.107C245.386 304.344 244.596 304.463 243.799 304.457H223.152C222.356 304.459 221.567 304.337 220.831 304.099C220.095 303.86 219.427 303.51 218.863 303.068C218.3 302.625 217.854 302.1 217.549 301.522C217.245 300.944 217.089 300.324 217.09 299.698V271.453C217.09 268.811 219.79 266.688 223.144 266.688H243.799C247.226 266.688 249.852 268.811 249.852 271.453Z" fill="#65ABFF"/>
<path d="M233.062 304.464H223.185C222.381 304.468 221.585 304.347 220.841 304.108C220.098 303.868 219.423 303.515 218.854 303.069C218.286 302.622 217.835 302.092 217.53 301.508C217.224 300.923 217.069 300.297 217.073 299.666V271.441C217.073 268.804 219.782 266.681 223.185 266.681H233.062C232.266 266.679 231.478 266.801 230.742 267.04C230.006 267.278 229.337 267.629 228.774 268.071C228.211 268.513 227.764 269.038 227.46 269.617C227.155 270.195 226.999 270.815 227 271.441V299.666C227 302.341 229.701 304.464 233.062 304.464Z" fill="#167FFC"/>
<path d="M296.126 242.936V299.698C296.111 300.967 295.458 302.179 294.31 303.071C293.162 303.962 291.612 304.461 289.998 304.457H269.351C267.747 304.452 266.21 303.949 265.075 303.058C263.939 302.167 263.298 300.959 263.289 299.698V242.936C263.289 240.293 266.056 238.112 269.343 238.112H289.998C293.359 238.112 296.126 240.293 296.126 242.936Z" fill="#E8953D"/>
<path d="M279.295 304.464H269.368C268.568 304.465 267.776 304.341 267.037 304.1C266.298 303.859 265.628 303.505 265.064 303.059C264.501 302.612 264.055 302.083 263.753 301.501C263.451 300.918 263.299 300.295 263.306 299.666V242.949C263.306 240.274 266.006 238.151 269.368 238.151H279.295C278.492 238.149 277.696 238.272 276.954 238.513C276.211 238.754 275.536 239.108 274.968 239.554C274.401 240.001 273.95 240.531 273.644 241.115C273.338 241.699 273.181 242.324 273.183 242.956V299.666C273.183 302.341 275.934 304.464 279.295 304.464Z" fill="#CE7E29"/>
<path d="M342.326 253.663V299.698C342.327 300.323 342.171 300.943 341.868 301.521C341.564 302.098 341.118 302.623 340.555 303.065C339.993 303.508 339.325 303.858 338.59 304.097C337.855 304.336 337.068 304.458 336.272 304.458H315.617C314.004 304.461 312.453 303.963 311.305 303.071C310.157 302.179 309.505 300.967 309.489 299.698V253.663C309.505 252.394 310.157 251.182 311.305 250.29C312.453 249.398 314.004 248.9 315.617 248.903H336.264C339.626 248.903 342.326 251.027 342.326 253.663Z" fill="#53D86A"/>
<path d="M325.478 304.464H315.593C314.791 304.465 313.997 304.341 313.256 304.101C312.515 303.86 311.841 303.506 311.274 303.061C310.707 302.615 310.258 302.086 309.952 301.503C309.645 300.921 309.488 300.296 309.489 299.666V253.682C309.489 251.04 312.239 248.877 315.601 248.877H325.478C324.679 248.88 323.888 249.006 323.151 249.249C322.414 249.492 321.744 249.847 321.182 250.293C320.619 250.739 320.173 251.268 319.87 251.849C319.567 252.431 319.413 253.054 319.416 253.682V299.672C319.416 302.347 322.117 304.477 325.478 304.477V304.464Z" fill="#179C2E"/>
<path d="M388.525 221.814V299.698C388.524 300.327 388.365 300.951 388.055 301.532C387.746 302.113 387.293 302.64 386.724 303.082C386.154 303.525 385.478 303.874 384.736 304.11C383.993 304.346 383.198 304.464 382.397 304.457H361.816C360.203 304.461 358.653 303.962 357.505 303.071C356.357 302.179 355.704 300.966 355.688 299.698V221.814C355.704 220.545 356.357 219.333 357.505 218.441C358.653 217.55 360.203 217.051 361.816 217.055H382.397C385.825 217.055 388.525 219.178 388.525 221.814Z" fill="#FCA03E"/>
<path d="M371.71 304.464H361.816C361.014 304.467 360.218 304.346 359.475 304.106C358.733 303.866 358.058 303.512 357.491 303.066C356.923 302.62 356.474 302.09 356.169 301.506C355.863 300.922 355.709 300.297 355.713 299.666V221.847C355.713 219.172 358.414 217.042 361.824 217.042H371.702C370.901 217.041 370.109 217.165 369.369 217.407C368.63 217.648 367.959 218.003 367.395 218.45C366.832 218.897 366.386 219.427 366.085 220.01C365.784 220.593 365.632 221.217 365.64 221.847V299.666C365.64 302.341 368.341 304.47 371.702 304.47L371.71 304.464Z" fill="#FE9526"/>
<path d="M129.175 100.545V116.563C129.175 118.29 130.761 119.679 132.9 120.063C140.987 121.509 148.387 124.727 154.245 129.343C160.103 133.958 164.179 139.784 166.001 146.145C166.48 147.833 168.256 149.08 170.453 149.08H190.976C193.726 149.08 195.964 147.171 195.543 145.035C193.137 132.952 185.91 121.784 174.904 113.141C163.898 104.499 149.683 98.8304 134.312 96.9539C131.603 96.6293 129.175 98.3824 129.175 100.545Z" fill="#FDBA4D"/>
<path d="M166.001 161.754C163.92 169.031 158.86 175.571 151.598 180.37C150.764 180.888 150.184 181.617 149.953 182.433C149.723 183.249 149.858 184.103 150.334 184.85L159.749 199.147C161.013 201.069 164.201 201.745 166.414 200.459C182.041 191.434 192.49 177.914 195.477 162.851C195.89 160.722 193.66 158.819 190.909 158.819H170.469C169.411 158.833 168.391 159.133 167.579 159.667C166.767 160.201 166.205 160.938 166.001 161.754Z" fill="#3689C9"/>
<path d="M139.276 189.271C138.793 188.567 138.019 188.014 137.082 187.704C136.145 187.393 135.1 187.344 134.122 187.564C126.036 189.222 117.517 189.045 109.554 187.052C101.59 185.06 94.5081 181.333 89.1287 176.305C88.4664 175.654 87.5411 175.201 86.5062 175.02C85.4713 174.839 84.3889 174.942 83.4384 175.311L65.327 182.655C62.8824 183.648 62.0069 186.161 63.6339 187.914C72.8265 197.814 85.7874 205.157 100.641 208.881C115.494 212.605 131.47 212.516 146.255 208.627C148.848 207.939 149.955 205.51 148.699 203.595L139.276 189.271Z" fill="#3BB54A"/>
<path d="M382.29 105.388H235.862C234.3 105.388 232.803 104.9 231.698 104.032C230.594 103.164 229.974 101.986 229.974 100.758C229.974 99.5306 230.594 98.3531 231.698 97.4849C232.803 96.6167 234.3 96.1289 235.862 96.1289H382.29C383.852 96.1289 385.35 96.6167 386.454 97.4849C387.558 98.3531 388.179 99.5306 388.179 100.758C388.179 101.986 387.558 103.164 386.454 104.032C385.35 104.9 383.852 105.388 382.29 105.388ZM382.29 125.276H235.862C235.089 125.276 234.323 125.156 233.609 124.924C232.894 124.691 232.245 124.35 231.698 123.92C231.152 123.49 230.718 122.98 230.422 122.418C230.126 121.856 229.974 121.254 229.974 120.647C229.974 120.039 230.126 119.437 230.422 118.875C230.718 118.313 231.152 117.803 231.698 117.373C232.245 116.943 232.894 116.602 233.609 116.369C234.323 116.137 235.089 116.017 235.862 116.017H382.29C383.852 116.017 385.35 116.505 386.454 117.373C387.558 118.241 388.179 119.419 388.179 120.647C388.179 121.874 387.558 123.052 386.454 123.92C385.35 124.788 383.852 125.276 382.29 125.276ZM382.29 145.158H235.862C235.089 145.158 234.323 145.038 233.609 144.805C232.894 144.573 232.245 144.232 231.698 143.802C231.152 143.372 230.718 142.861 230.422 142.3C230.126 141.738 229.974 141.136 229.974 140.528C229.974 139.92 230.126 139.318 230.422 138.756C230.718 138.195 231.152 137.684 231.698 137.255C232.245 136.825 232.894 136.484 233.609 136.251C234.323 136.018 235.089 135.899 235.862 135.899H382.29C383.852 135.899 385.35 136.386 386.454 137.255C387.558 138.123 388.179 139.3 388.179 140.528C388.179 141.756 387.558 142.933 386.454 143.802C385.35 144.67 383.852 145.158 382.29 145.158ZM299.702 165.046H235.862C234.3 165.046 232.803 164.558 231.698 163.69C230.594 162.822 229.974 161.644 229.974 160.416C229.974 159.188 230.594 158.011 231.698 157.143C232.803 156.274 234.3 155.787 235.862 155.787H299.702C301.264 155.787 302.762 156.274 303.866 157.143C304.971 158.011 305.591 159.188 305.591 160.416C305.591 161.644 304.971 162.822 303.866 163.69C302.762 164.558 301.264 165.046 299.702 165.046Z" fill="#C6C7F7"/>
<path d="M59.7111 262.129C65.3168 262.129 69.8611 258.557 69.8611 254.149C69.8611 249.742 65.3168 246.169 59.7111 246.169C54.1054 246.169 49.561 249.742 49.561 254.149C49.561 258.557 54.1054 262.129 59.7111 262.129Z" fill="#E8953D"/>
<path d="M59.7111 283.297C65.3168 283.297 69.8611 279.724 69.8611 275.317C69.8611 270.91 65.3168 267.337 59.7111 267.337C54.1054 267.337 49.561 270.91 49.561 275.317C49.561 279.724 54.1054 283.297 59.7111 283.297Z" fill="#FCA03E"/>
<path d="M59.7111 304.471C65.3168 304.471 69.8611 300.898 69.8611 296.491C69.8611 292.083 65.3168 288.511 59.7111 288.511C54.1054 288.511 49.561 292.083 49.561 296.491C49.561 300.898 54.1054 304.471 59.7111 304.471Z" fill="#53D86A"/>
<path d="M59.7111 240.956C65.3168 240.956 69.8611 237.383 69.8611 232.976C69.8611 228.569 65.3168 224.996 59.7111 224.996C54.1054 224.996 49.561 228.569 49.561 232.976C49.561 237.383 54.1054 240.956 59.7111 240.956Z" fill="#65ABFF"/>
<path d="M63.4934 261.565C61.9537 262.048 60.287 262.228 58.6388 262.088C56.9905 261.948 55.4108 261.494 54.0374 260.763C52.6641 260.033 51.5389 259.05 50.76 257.9C49.9811 256.749 49.5723 255.466 49.5691 254.163C49.5568 252.855 49.9556 251.565 50.73 250.407C51.5045 249.25 52.6306 248.261 54.0083 247.528C55.3861 246.794 56.9728 246.34 58.6275 246.205C60.2822 246.071 61.9537 246.259 63.4934 246.754C61.5986 247.333 59.9723 248.35 58.8306 249.672C57.6889 250.994 57.0857 252.558 57.1011 254.156C57.1011 257.507 59.7192 260.409 63.4934 261.565Z" fill="#CE7E29"/>
<path d="M63.4934 282.745C61.9537 283.228 60.287 283.408 58.6387 283.268C56.9904 283.128 55.4107 282.674 54.0374 281.943C52.664 281.213 51.5388 280.23 50.76 279.08C49.9811 277.929 49.5722 276.646 49.5691 275.343C49.5581 274.035 49.9579 272.746 50.7329 271.59C51.5079 270.433 52.6342 269.445 54.0117 268.712C55.3893 267.98 56.9755 267.526 58.6295 267.392C60.2835 267.257 61.9543 267.446 63.4934 267.941C61.5985 268.519 59.9723 269.537 58.8305 270.859C57.6888 272.181 57.0856 273.745 57.1011 275.343C57.1011 278.687 59.7191 281.589 63.4934 282.745Z" fill="#FE9526"/>
<path d="M63.4934 303.866C61.9543 304.361 60.2835 304.55 58.6295 304.415C56.9755 304.281 55.3893 303.827 54.0117 303.095C52.6342 302.363 51.5079 301.374 50.7329 300.218C49.9579 299.061 49.5581 297.772 49.5691 296.464C49.5691 292.082 54.0701 288.543 59.7274 288.543C61.0322 288.543 62.3454 288.738 63.4934 289.121C61.6097 289.693 59.9907 290.7 58.8496 292.01C57.7086 293.32 57.0989 294.87 57.1011 296.458C57.1011 299.873 59.7191 302.711 63.4934 303.866Z" fill="#179C2E"/>
<path d="M63.4935 240.378C61.9514 240.869 60.2795 241.055 58.6246 240.919C56.9698 240.783 55.3827 240.33 54.0028 239.599C52.623 238.868 51.4927 237.882 50.7112 236.727C49.9297 235.572 49.521 234.284 49.521 232.976C49.521 231.668 49.9297 230.379 50.7112 229.225C51.4927 228.07 52.623 227.084 54.0028 226.353C55.3827 225.622 56.9698 225.168 58.6246 225.032C60.2795 224.897 61.9514 225.082 63.4935 225.574C61.6054 226.16 59.9855 227.179 58.8453 228.5C57.705 229.82 57.0973 231.38 57.1013 232.976C57.1013 236.32 59.7193 239.222 63.4935 240.378Z" fill="#167FFC"/>
<path d="M187.391 232.937C187.391 236.599 183.634 239.547 179.108 239.547H95.6529C93.4406 239.547 91.319 238.856 89.7546 237.626C88.1903 236.396 87.3115 234.728 87.3115 232.989C87.3115 231.249 88.1903 229.581 89.7546 228.351C91.319 227.122 93.4406 226.431 95.6529 226.431H179.108C181.297 226.444 183.392 227.134 184.94 228.351C186.488 229.568 187.366 231.215 187.383 232.937H187.391Z" fill="#65ABFF"/>
<path d="M108.338 239.547H95.6529C93.4406 239.547 91.319 238.856 89.7546 237.626C88.1903 236.396 87.3115 234.728 87.3115 232.989C87.3115 231.249 88.1903 229.581 89.7546 228.351C91.319 227.122 93.4406 226.431 95.6529 226.431H108.338C106.126 226.431 104.004 227.122 102.44 228.351C100.876 229.581 99.997 231.249 99.997 232.989C99.997 234.728 100.876 236.396 102.44 237.626C104.004 238.856 106.126 239.547 108.338 239.547Z" fill="#167FFC"/>
<path d="M187.391 254.104C187.391 257.766 183.634 260.72 179.108 260.72H95.6529C93.4406 260.72 91.319 260.029 89.7546 258.8C88.1903 257.57 87.3115 255.902 87.3115 254.162C87.3115 252.423 88.1903 250.755 89.7546 249.525C91.319 248.295 93.4406 247.604 95.6529 247.604H179.108C181.296 247.618 183.389 248.307 184.937 249.523C186.485 250.739 187.364 252.384 187.383 254.104H187.391Z" fill="#E8953D"/>
<path d="M108.338 260.72H95.6529C93.4406 260.72 91.319 260.029 89.7546 258.8C88.1903 257.57 87.3115 255.902 87.3115 254.162C87.3115 252.423 88.1903 250.755 89.7546 249.525C91.319 248.295 93.4406 247.604 95.6529 247.604H108.338C106.126 247.604 104.004 248.295 102.44 249.525C100.876 250.755 99.997 252.423 99.997 254.162C99.997 255.902 100.876 257.57 102.44 258.8C104.004 260.029 106.126 260.72 108.338 260.72Z" fill="#CE7E29"/>
<path d="M187.391 275.278C187.391 278.94 183.634 281.888 179.108 281.888H95.6529C93.4406 281.888 91.319 281.197 89.7546 279.967C88.1903 278.737 87.3115 277.069 87.3115 275.33C87.3115 273.591 88.1903 271.923 89.7546 270.693C91.319 269.463 93.4406 268.772 95.6529 268.772H179.108C181.297 268.786 183.392 269.475 184.94 270.693C186.488 271.91 187.366 273.557 187.383 275.278H187.391Z" fill="#FCA03E"/>
<path d="M108.338 281.888H95.6529C93.4406 281.888 91.319 281.197 89.7546 279.967C88.1903 278.737 87.3115 277.069 87.3115 275.33C87.3115 273.591 88.1903 271.923 89.7546 270.693C91.319 269.463 93.4406 268.772 95.6529 268.772H108.338C106.126 268.772 104.004 269.463 102.44 270.693C100.876 271.923 99.997 273.591 99.997 275.33C99.997 277.069 100.876 278.737 102.44 279.967C104.004 281.197 106.126 281.888 108.338 281.888Z" fill="#FE9526"/>
<path d="M187.391 296.445C187.391 300.107 183.634 303.055 179.108 303.055H95.6529C93.4406 303.055 91.319 302.364 89.7546 301.134C88.1903 299.904 87.3115 298.236 87.3115 296.497C87.3115 294.758 88.1903 293.09 89.7546 291.86C91.319 290.63 93.4406 289.939 95.6529 289.939H179.108C181.297 289.953 183.392 290.642 184.94 291.86C186.488 293.077 187.366 294.724 187.383 296.445H187.391Z" fill="#53D86A"/>
<path d="M108.338 303.055H95.6529C93.4406 303.055 91.319 302.364 89.7546 301.134C88.1903 299.904 87.3115 298.236 87.3115 296.497C87.3115 294.758 88.1903 293.09 89.7546 291.86C91.319 290.63 93.4406 289.939 95.6529 289.939H108.338C106.126 289.939 104.004 290.63 102.44 291.86C100.876 293.09 99.997 294.758 99.997 296.497C99.997 298.236 100.876 299.904 102.44 301.134C104.004 302.364 106.126 303.055 108.338 303.055Z" fill="#179C2E"/>
<path d="M387.666 47.6918H137.405C134.141 47.6918 131.965 45.6345 131.965 42.5485C131.965 39.4626 134.141 37.4053 137.405 37.4053H387.666C390.931 37.4053 393.107 39.4626 393.107 42.5485C393.107 45.6345 390.931 47.6918 387.666 47.6918Z" fill="#E2E5E7"/>
<path d="M55.6145 47.5359C59.1271 47.5359 61.9746 45.2681 61.9746 42.4706C61.9746 39.6731 59.1271 37.4053 55.6145 37.4053C52.1019 37.4053 49.2544 39.6731 49.2544 42.4706C49.2544 45.2681 52.1019 47.5359 55.6145 47.5359Z" fill="#E2E5E7"/>
<path d="M81.0549 47.5359C84.5675 47.5359 87.415 45.2681 87.415 42.4706C87.415 39.6731 84.5675 37.4053 81.0549 37.4053C77.5423 37.4053 74.6948 39.6731 74.6948 42.4706C74.6948 45.2681 77.5423 47.5359 81.0549 47.5359Z" fill="#E2E5E7"/>
<path d="M106.495 47.5359C110.008 47.5359 112.855 45.2681 112.855 42.4706C112.855 39.6731 110.008 37.4053 106.495 37.4053C102.983 37.4053 100.135 39.6731 100.135 42.4706C100.135 45.2681 102.983 47.5359 106.495 47.5359Z" fill="#E2E5E7"/>
</svg>
