<svg width="439" height="345" viewBox="0 0 439 345" fill="none" xmlns="http://www.w3.org/2000/svg">
<path d="M418.123 62.6543L418.073 299.376C418.073 314.218 403.194 326.362 385.009 326.362H54.3634C36.1779 326.362 21.2988 314.218 21.2988 299.376L21.3484 62.6543H418.123Z" fill="#5D748A"/>
<path d="M418.073 40.9417L418.123 62.6542H21.3402L21.2988 40.9417C21.2988 30.7214 26.0178 22.4434 44.2901 22.4434H395.971C414.161 22.4434 418.073 30.7676 418.073 40.9417Z" fill="#5D748A"/>
<path d="M57.5427 326.362H43.8807C31.4607 326.362 21.2988 314.215 21.2988 299.367L21.3214 62.6543H34.9834L34.9609 299.367C34.9609 314.215 45.1227 326.362 57.5427 326.362Z" fill="#2C4359"/>
<path d="M57.5427 22.4434C45.0662 22.4434 34.9609 30.7119 34.9609 40.9205L34.9834 62.6542H21.3214L21.2988 40.9159C21.2988 30.7072 26.2128 22.4435 38.6329 22.4435L57.5427 22.4434Z" fill="#1A3147"/>
<path d="M388.52 47.6918H138.259C134.995 47.6918 132.818 45.6345 132.818 42.5485C132.818 39.4626 134.995 37.4053 138.259 37.4053H388.52C391.784 37.4053 393.96 39.4626 393.96 42.5485C393.96 45.6345 391.784 47.6918 388.52 47.6918Z" fill="#E2E5E7"/>
<path d="M56.4685 47.5359C59.9811 47.5359 62.8286 45.2681 62.8286 42.4706C62.8286 39.6731 59.9811 37.4053 56.4685 37.4053C52.9559 37.4053 50.1084 39.6731 50.1084 42.4706C50.1084 45.2681 52.9559 47.5359 56.4685 47.5359Z" fill="#E2E5E7"/>
<path d="M81.9089 47.5359C85.4215 47.5359 88.269 45.2681 88.269 42.4706C88.269 39.6731 85.4215 37.4053 81.9089 37.4053C78.3963 37.4053 75.5488 39.6731 75.5488 42.4706C75.5488 45.2681 78.3963 47.5359 81.9089 47.5359Z" fill="#E2E5E7"/>
<path d="M107.349 47.5359C110.862 47.5359 113.709 45.2681 113.709 42.4706C113.709 39.6731 110.862 37.4053 107.349 37.4053C103.837 37.4053 100.989 39.6731 100.989 42.4706C100.989 45.2681 103.837 47.5359 107.349 47.5359Z" fill="#E2E5E7"/>
<path d="M397.368 303.919H55.9942C52.4627 303.919 50.1084 301.989 50.1084 299.094V67.4796C50.1084 64.5844 52.4627 62.6543 55.9942 62.6543H397.368C400.9 62.6543 403.254 64.5844 403.254 67.4796V299.094C403.254 301.989 400.9 303.919 397.368 303.919Z" fill="#35363E"/>
<path d="M132.835 93.3577H83.3853C79.6766 93.3577 77.2041 91.3316 77.2041 88.2924C77.2041 85.2532 79.6766 83.2271 83.3853 83.2271H132.835C136.543 83.2271 139.016 85.2532 139.016 88.2924C139.016 91.3316 136.543 93.3577 132.835 93.3577ZM169.922 113.619H108.11C104.401 113.619 101.929 111.593 101.929 108.554C101.929 105.514 104.401 103.488 108.11 103.488H169.922C173.63 103.488 176.103 105.514 176.103 108.554C176.103 111.593 173.63 113.619 169.922 113.619ZM305.908 113.619H244.096C240.387 113.619 237.915 111.593 237.915 108.554C237.915 105.514 240.387 103.488 244.096 103.488H305.908C309.616 103.488 312.089 105.514 312.089 108.554C312.089 111.593 309.616 113.619 305.908 113.619Z" fill="#CAD1D8"/>
<path d="M231.733 154.141H169.921C166.213 154.141 163.74 152.115 163.74 149.076C163.74 146.037 166.213 144.011 169.921 144.011H231.733C235.442 144.011 237.914 146.037 237.914 149.076C237.914 152.115 235.442 154.141 231.733 154.141Z" fill="#EE2C39"/>
<path d="M219.371 113.619H194.646C190.937 113.619 188.465 111.593 188.465 108.554C188.465 105.514 190.937 103.488 194.646 103.488H219.371C223.079 103.488 225.552 105.514 225.552 108.554C225.552 111.593 223.079 113.619 219.371 113.619Z" fill="#3BB54A"/>
<path d="M188.465 133.88H108.11C104.401 133.88 101.929 131.854 101.929 128.815C101.929 125.776 104.401 123.75 108.11 123.75H188.465C192.174 123.75 194.646 125.776 194.646 128.815C194.646 131.854 192.174 133.88 188.465 133.88Z" fill="#CAD1D8"/>
<path d="M145.197 154.141H108.11C104.401 154.141 101.929 152.115 101.929 149.076C101.929 146.037 104.401 144.011 108.11 144.011H145.197C148.906 144.011 151.378 146.037 151.378 149.076C151.378 152.115 148.906 154.141 145.197 154.141Z" fill="#FDBA4D"/>
<path d="M336.813 133.88H299.726C296.017 133.88 293.545 131.854 293.545 128.815C293.545 125.776 296.017 123.75 299.726 123.75H336.813C340.522 123.75 342.994 125.776 342.994 128.815C342.994 131.854 340.522 133.88 336.813 133.88ZM268.82 235.186H231.733C228.024 235.186 225.552 233.16 225.552 230.121C225.552 227.082 228.024 225.056 231.733 225.056H268.82C272.529 225.056 275.001 227.082 275.001 230.121C275.001 233.16 272.529 235.186 268.82 235.186Z" fill="#CAD1D8"/>
<path d="M225.552 255.448H188.465C184.757 255.448 182.284 253.422 182.284 250.383C182.284 247.344 184.757 245.317 188.465 245.317H225.552C229.261 245.317 231.734 247.344 231.734 250.383C231.734 253.422 229.261 255.448 225.552 255.448ZM287.364 255.448H250.277C246.568 255.448 244.096 253.422 244.096 250.383C244.096 247.344 246.568 245.317 250.277 245.317H287.364C291.073 245.317 293.545 247.344 293.545 250.383C293.545 253.422 291.073 255.448 287.364 255.448Z" fill="#EE2C39"/>
<path d="M237.915 214.925H213.19C209.481 214.925 207.009 212.899 207.009 209.86C207.009 206.821 209.481 204.794 213.19 204.794H237.915C241.623 204.794 244.096 206.821 244.096 209.86C244.096 212.899 241.623 214.925 237.915 214.925Z" fill="#3BB54A"/>
<path d="M380.081 275.709H355.357C351.648 275.709 349.175 273.683 349.175 270.644C349.175 267.604 351.648 265.578 355.357 265.578H380.081C383.79 265.578 386.262 267.604 386.262 270.644C386.262 273.683 383.79 275.709 380.081 275.709ZM244.095 174.403H194.646C190.937 174.403 188.465 172.376 188.465 169.337C188.465 166.298 190.937 164.272 194.646 164.272H244.095C247.804 164.272 250.277 166.298 250.277 169.337C250.277 172.376 247.804 174.403 244.095 174.403Z" fill="#3689C9"/>
<path d="M275.002 133.88H213.19C209.481 133.88 207.009 131.854 207.009 128.815C207.009 125.776 209.481 123.75 213.19 123.75H275.002C278.71 123.75 281.183 125.776 281.183 128.815C281.183 131.854 278.71 133.88 275.002 133.88ZM169.922 174.403H108.11C104.401 174.403 101.929 172.377 101.929 169.337C101.929 166.298 104.401 164.272 108.11 164.272H169.922C173.63 164.272 176.103 166.298 176.103 169.337C176.103 172.377 173.63 174.403 169.922 174.403ZM132.835 194.664H83.3853C79.6766 194.664 77.2041 192.638 77.2041 189.599C77.2041 186.559 79.6766 184.533 83.3853 184.533H132.835C136.543 184.533 139.016 186.559 139.016 189.599C139.016 192.638 136.543 194.664 132.835 194.664ZM188.465 214.925H108.11C104.401 214.925 101.929 212.899 101.929 209.86C101.929 206.821 104.401 204.795 108.11 204.795H188.465C192.174 204.795 194.646 206.821 194.646 209.86C194.646 212.899 192.174 214.925 188.465 214.925Z" fill="#CAD1D8"/>
<path d="M207.009 235.186H108.11C104.401 235.186 101.929 233.16 101.929 230.121C101.929 227.082 104.401 225.056 108.11 225.056H207.009C210.717 225.056 213.19 227.082 213.19 230.121C213.19 233.16 210.717 235.186 207.009 235.186ZM299.726 214.925H262.639C258.931 214.925 256.458 212.899 256.458 209.86C256.458 206.821 258.931 204.794 262.639 204.794H299.726C303.435 204.794 305.908 206.821 305.908 209.86C305.908 212.899 303.435 214.925 299.726 214.925Z" fill="#FDBA4D"/>
<path d="M163.741 255.448H108.11C104.401 255.448 101.929 253.422 101.929 250.383C101.929 247.344 104.401 245.317 108.11 245.317H163.741C167.449 245.317 169.922 247.344 169.922 250.383C169.922 253.422 167.449 255.448 163.741 255.448ZM207.009 275.709H108.11C104.401 275.709 101.929 273.683 101.929 270.644C101.929 267.605 104.401 265.579 108.11 265.579H207.009C210.718 265.579 213.19 267.605 213.19 270.644C213.19 273.683 210.718 275.709 207.009 275.709ZM330.632 275.709H231.734C228.025 275.709 225.552 273.683 225.552 270.644C225.552 267.605 228.025 265.579 231.734 265.579H330.632C334.341 265.579 336.814 267.605 336.814 270.644C336.814 273.683 334.341 275.709 330.632 275.709ZM77.2041 290.905C77.2041 287.866 79.6766 285.84 83.3853 285.84H132.835C136.543 285.84 139.016 287.866 139.016 290.905C139.016 293.944 136.543 295.971 132.835 295.971H83.3853C79.6766 295.971 77.2041 293.944 77.2041 290.905Z" fill="#CAD1D8"/>
<path d="M324.451 214.925C327.864 214.925 330.632 212.657 330.632 209.86C330.632 207.062 327.864 204.794 324.451 204.794C321.037 204.794 318.27 207.062 318.27 209.86C318.27 212.657 321.037 214.925 324.451 214.925Z" fill="#CAD1D8"/>
<path d="M256.458 154.141C259.871 154.141 262.639 151.874 262.639 149.076C262.639 146.279 259.871 144.011 256.458 144.011C253.044 144.011 250.276 146.279 250.276 149.076C250.276 151.874 253.044 154.141 256.458 154.141Z" fill="#CAD1D8"/>
</svg>
