<svg width="438" height="345" viewBox="0 0 438 345" fill="none" xmlns="http://www.w3.org/2000/svg">
<path d="M417.555 61.7188L417.505 298.44C417.505 313.283 402.626 325.427 384.44 325.427H53.795C35.6095 325.427 20.7305 313.283 20.7305 298.44L20.7801 61.7188H417.555Z" fill="#4588D9"/>
<path d="M417.505 40.9417L417.555 62.6542H20.7718L20.7305 40.9417C20.7305 30.7214 25.4494 22.4434 43.7218 22.4434H395.403C413.592 22.4434 417.505 30.7676 417.505 40.9417Z" fill="#4588D9"/>
<path d="M56.9744 326.362H43.3123C30.8923 326.362 20.7305 314.215 20.7305 299.367L20.7531 62.6543H34.4151L34.3925 299.367C34.3925 314.215 44.5543 326.362 56.9744 326.362Z" fill="#284B73"/>
<path d="M56.9744 22.4434C44.4979 22.4434 34.3925 30.7119 34.3925 40.9205L34.4151 62.6542H20.7531L20.7305 40.9159C20.7305 30.7072 25.6445 22.4435 38.0645 22.4435L56.9744 22.4434Z" fill="#0D294B"/>
<path d="M387.951 47.6918H137.69C134.426 47.6918 132.25 45.6345 132.25 42.5485C132.25 39.4626 134.426 37.4053 137.69 37.4053H387.951C391.216 37.4053 393.392 39.4626 393.392 42.5485C393.392 45.6345 391.216 47.6918 387.951 47.6918Z" fill="#E2E5E7"/>
<path d="M55.9001 47.5359C59.4127 47.5359 62.2603 45.2681 62.2603 42.4706C62.2603 39.6731 59.4127 37.4053 55.9001 37.4053C52.3876 37.4053 49.54 39.6731 49.54 42.4706C49.54 45.2681 52.3876 47.5359 55.9001 47.5359Z" fill="#E2E5E7"/>
<path d="M81.3406 47.5359C84.8532 47.5359 87.7007 45.2681 87.7007 42.4706C87.7007 39.6731 84.8532 37.4053 81.3406 37.4053C77.828 37.4053 74.9805 39.6731 74.9805 42.4706C74.9805 45.2681 77.828 47.5359 81.3406 47.5359Z" fill="#E2E5E7"/>
<path d="M106.781 47.5359C110.294 47.5359 113.141 45.2681 113.141 42.4706C113.141 39.6731 110.294 37.4053 106.781 37.4053C103.268 37.4053 100.421 39.6731 100.421 42.4706C100.421 45.2681 103.268 47.5359 106.781 47.5359Z" fill="#E2E5E7"/>
<path d="M411.633 303.919H42.3667C38.5467 303.919 36 301.989 36 299.094V67.4796C36 64.5844 38.5467 62.6543 42.3667 62.6543H411.633C415.453 62.6543 418 64.5844 418 67.4796V299.094C418 301.989 415.453 303.919 411.633 303.919Z" fill="#F1F2FF"/>
<path d="M289.756 247.624C277.05 247.626 264.525 245.199 253.217 240.542C241.908 235.886 232.14 229.133 224.719 220.844L239.727 183.287C239.749 193.946 245.026 204.164 254.404 211.701C263.782 219.238 276.494 223.48 289.756 223.497V247.624Z" fill="#FE9526"/>
<path d="M369.803 183.287C369.803 200.35 361.37 216.714 346.358 228.78C331.346 240.846 310.986 247.624 289.757 247.624L279.751 235.561L289.757 223.497C303.019 223.48 315.732 219.238 325.109 211.701C334.487 204.164 339.765 193.946 339.786 183.287H369.803Z" fill="#53D86A"/>
<path d="M289.756 118.949C310.985 118.949 331.346 125.728 346.357 137.793C361.369 149.859 369.802 166.223 369.802 183.287L354.794 191.329L339.785 183.287C339.764 172.627 334.486 162.409 325.108 154.872C315.731 147.335 303.018 143.093 289.756 143.076V118.949Z" fill="#4E9B5B"/>
<path d="M239.727 183.287C239.74 191.739 237.678 200.109 233.659 207.92C229.641 215.73 223.745 222.826 216.31 228.803C208.874 234.779 200.045 239.518 190.328 242.747C180.611 245.977 170.196 247.634 159.681 247.624V223.498C172.943 223.481 185.655 219.239 195.033 211.701C204.411 204.164 209.688 193.946 209.71 183.287L224.718 171.224L239.727 183.287Z" fill="#343692"/>
<path d="M109.652 183.287C109.673 193.946 114.951 204.164 124.329 211.701C133.706 219.238 146.419 223.48 159.681 223.497L169.687 235.561L159.681 247.624C138.451 247.624 118.091 240.846 103.08 228.78C88.0682 216.714 79.6348 200.35 79.6348 183.287H109.652Z" fill="#595BD4"/>
<path d="M159.681 143.076C146.419 143.093 133.706 147.335 124.329 154.872C114.951 162.409 109.673 172.627 109.652 183.287L94.6435 191.329L79.6348 183.287C79.6348 166.223 88.0682 149.859 103.08 137.793C118.091 125.728 138.451 118.949 159.681 118.949V143.076Z" fill="#167FFC"/>
<path d="M209.71 183.287C209.688 172.627 204.411 162.409 195.033 154.872C185.655 147.335 172.943 143.093 159.681 143.076L149.675 131.012L159.681 118.949C172.387 118.947 184.912 121.374 196.22 126.031C207.529 130.688 217.297 137.44 224.718 145.73L209.71 183.287Z" fill="#6F71E2"/>
<path d="M299.762 131.013L289.756 143.076C276.494 143.093 263.782 147.335 254.404 154.872C245.026 162.409 239.749 172.627 239.727 183.287L224.719 175.244L209.71 183.287C209.698 174.835 211.759 166.464 215.778 158.654C219.796 150.844 225.692 143.747 233.127 137.771C240.563 131.795 249.392 127.056 259.109 123.826C268.826 120.596 279.241 118.939 289.756 118.949L299.762 131.013Z" fill="#292A74"/>
</svg>
