<svg width="250" height="254" viewBox="0 0 250 254" fill="none" xmlns="http://www.w3.org/2000/svg">
<path d="M124.964 6.11146C124.967 2.79775 122.28 0.0937899 118.97 0.252322C88.0574 1.73295 58.7064 14.8313 36.7076 37.1194C13.2903 60.8448 0.122294 93.0399 0.10034 126.622C0.0783863 160.205 13.2043 192.423 36.5906 216.19C58.5602 238.518 87.894 251.669 118.805 253.204C122.115 253.369 124.805 250.67 124.807 247.356L124.835 203.562C124.838 200.249 122.147 197.587 118.847 197.296C102.531 195.855 87.1585 188.625 75.4961 176.773C62.4145 163.478 55.0723 145.456 55.0845 126.671C55.0968 107.886 62.4626 89.8775 75.5616 76.6062C87.2395 64.7747 102.621 57.5727 118.939 56.1611C122.24 55.8755 124.934 53.2188 124.936 49.9051L124.964 6.11146Z" fill="url(#paint0_linear_143_2447)"/>
<path d="M212.468 126.813L115.281 126.726C111.967 126.723 109.279 129.407 109.277 132.721L109.25 173.48C109.248 176.794 111.932 179.483 115.246 179.486L163.039 179.528C166.353 179.531 169.037 182.22 169.035 185.534L169.003 234.207C169.001 237.521 171.686 240.21 174.999 240.213L212.394 240.246C215.707 240.249 218.396 237.565 218.398 234.251L218.464 132.819C218.466 129.505 215.782 126.816 212.468 126.813Z" fill="url(#paint1_linear_143_2447)"/>
<defs>
<linearGradient id="paint0_linear_143_2447" x1="124.968" y1="0.111468" x2="124.742" y2="253.356" gradientUnits="userSpaceOnUse">
<stop stop-color="#5DE0E5"/>
<stop offset="0.784898" stop-color="#2A55B2"/>
</linearGradient>
<linearGradient id="paint1_linear_143_2447" x1="163.874" y1="126.77" x2="163.773" y2="240.202" gradientUnits="userSpaceOnUse">
<stop stop-color="#5DE0E5"/>
<stop offset="0.784898" stop-color="#2A55B2"/>
</linearGradient>
</defs>
</svg>
