<svg width="438" height="345" viewBox="0 0 438 345" fill="none" xmlns="http://www.w3.org/2000/svg">
<path d="M417.269 63.5244L417.22 300.246C417.22 315.088 402.341 327.233 384.155 327.233H53.5099C35.3244 327.233 20.4453 315.088 20.4453 300.246L20.4949 63.5244H417.269Z" fill="#F1F2FF"/>
<path d="M417.22 41.8123L417.269 63.5248H20.4867L20.4453 41.8123C20.4453 31.592 25.1643 23.314 43.4366 23.314H395.118C413.307 23.314 417.22 31.6382 417.22 41.8123Z" fill="#398240"/>
<path d="M57.6185 327.233H43.6062C30.8677 327.233 20.4453 315.085 20.4453 300.237L20.4685 63.5244H34.4808L34.4576 300.237C34.4576 315.085 44.88 327.233 57.6185 327.233Z" fill="#A9B0AA"/>
<path d="M57.6185 23.314C44.8221 23.314 34.4576 31.5825 34.4576 41.7911L34.4808 63.5248H20.4685L20.4453 41.7865C20.4453 31.5779 25.4853 23.3141 38.2238 23.3141L57.6185 23.314Z" fill="#2A5F2F"/>
<path d="M387.666 48.5624H137.405C134.141 48.5624 131.965 46.5051 131.965 43.4191C131.965 40.3332 134.141 38.2759 137.405 38.2759H387.666C390.931 38.2759 393.107 40.3332 393.107 43.4191C393.107 46.5051 390.931 48.5624 387.666 48.5624Z" fill="#E2E5E7"/>
<path d="M55.6145 48.4065C59.1271 48.4065 61.9746 46.1387 61.9746 43.3412C61.9746 40.5437 59.1271 38.2759 55.6145 38.2759C52.1019 38.2759 49.2544 40.5437 49.2544 43.3412C49.2544 46.1387 52.1019 48.4065 55.6145 48.4065Z" fill="#E2E5E7"/>
<path d="M81.0549 48.4065C84.5675 48.4065 87.415 46.1387 87.415 43.3412C87.415 40.5437 84.5675 38.2759 81.0549 38.2759C77.5423 38.2759 74.6948 40.5437 74.6948 43.3412C74.6948 46.1387 77.5423 48.4065 81.0549 48.4065Z" fill="#E2E5E7"/>
<path d="M106.495 48.4065C110.008 48.4065 112.855 46.1387 112.855 43.3412C112.855 40.5437 110.008 38.2759 106.495 38.2759C102.983 38.2759 100.135 40.5437 100.135 43.3412C100.135 46.1387 102.983 48.4065 106.495 48.4065Z" fill="#E2E5E7"/>
<g clip-path="url(#clip0_573_817)">
<path d="M414.724 64.8579H47.3145C40.687 64.8579 35.3145 70.2305 35.3145 76.8579V198.431V320.003C35.3145 326.631 40.687 332.003 47.3144 332.003H414.724C421.351 332.003 426.724 326.631 426.724 320.003V76.8579C426.724 70.2305 421.351 64.8579 414.724 64.8579Z" fill="#E1E8E2"/>
<path d="M118.49 64.395L227.11 202.047C229.401 204.917 227.801 208.493 223.547 210.026C219.256 211.558 213.911 210.488 211.621 207.642L95.2563 64.395H118.49ZM325.862 327.233H306.01L238.818 241.383C236.491 238.513 238.127 234.937 242.381 233.404C246.671 231.871 252.016 232.942 254.307 235.812L325.862 327.233Z" fill="white"/>
<path d="M215.184 199.662C224.31 196.378 234.527 195.868 243.69 197.716C252.889 199.541 261.033 203.725 265.942 209.831C270.85 215.913 271.577 222.773 268.85 228.903C266.087 235.034 259.833 240.483 250.707 243.767C241.617 247.051 231.4 247.562 222.238 245.713C213.039 243.889 204.894 239.705 199.986 233.599C195.077 227.517 194.35 220.681 197.077 214.526C199.84 208.396 206.094 202.947 215.184 199.662ZM238.672 209.004C233.8 208.031 228.346 208.299 223.547 210.026C218.711 211.753 215.402 214.648 213.948 217.908C212.493 221.167 212.893 224.792 215.475 228.028C218.093 231.239 222.383 233.453 227.255 234.426C232.128 235.423 237.581 235.155 242.381 233.404C247.217 231.677 250.525 228.782 251.98 225.522C253.434 222.262 253.034 218.637 250.416 215.402C247.835 212.191 243.544 209.977 238.672 209.004ZM35.3145 175.919L92.2168 174.217L171.626 145.584C175.916 144.027 181.224 145.122 183.551 147.968C185.842 150.838 184.242 154.414 179.952 155.947L98.7978 185.212C97.6707 185.626 96.3981 185.869 95.0165 185.918L35.3145 187.694V175.919Z" fill="white"/>
<path d="M337.424 63.2373C316.845 89.5833 293.284 126.001 305.573 139.624C350.005 188.934 262.379 217.786 262.124 217.883C257.797 219.343 252.525 218.175 250.344 215.28C248.126 212.361 249.871 208.834 254.234 207.374C254.416 207.301 325.026 184.045 290.484 145.705C275.613 129.212 296.993 91.6998 317.863 63.2373H337.424ZM203.585 225.619C207.84 224.087 213.184 225.157 215.475 228.028C217.802 230.898 216.202 234.45 211.912 236.007L35.3145 298.235V285.001L203.585 225.619ZM417.269 282.447L361.712 262.766L267.687 269.529C262.888 269.87 258.524 267.534 258.015 264.299C257.506 261.064 260.997 258.169 265.833 257.828L363.021 250.846C364.985 250.7 367.057 251.017 368.839 251.795L417.269 269.213V282.447Z" fill="white"/>
<path fill-rule="evenodd" clip-rule="evenodd" d="M133.713 111.38L163.562 148.228L92.0756 173.871L35.3145 175.561V158.924V63.7153H95.5439L133.713 111.38Z" fill="#167FFC"/>
<path d="M62.8748 176.406L123.522 254.519L108.033 260.09L47.3857 181.977L62.8748 176.406Z" fill="white"/>
<path d="M190.242 327.232L278.086 280.914L286.739 291.131L218.311 327.232H190.242Z" fill="white"/>
<path fill-rule="evenodd" clip-rule="evenodd" d="M271.904 257.415L365.748 252.355C367.82 252.233 407.816 266.999 417.269 270.478V63.2373H337.606C317.026 89.5833 293.466 126.001 305.755 139.624C342.405 180.298 289.212 207.058 269.323 215.232C271.177 219.781 270.995 224.525 269.032 228.903C267.069 233.234 263.396 237.223 258.161 240.361L271.904 257.415Z" fill="#65ABFF"/>
<path fill-rule="evenodd" clip-rule="evenodd" d="M237.898 144.551C259.485 144.551 270.322 150.615 262.119 158.067C259.999 159.991 256.83 161.818 252.932 163.474L252.868 163.498C252.204 163.79 251.54 164.058 250.833 164.326L188.705 189.289L181.509 164.326C180.717 162.402 181.552 160.259 183.951 158.067C192.175 150.615 216.311 144.551 237.898 144.551Z" fill="#595BD4"/>
<path fill-rule="evenodd" clip-rule="evenodd" d="M209.564 180.884L195.159 186.495L168.244 153.782C173.553 152.663 179.479 151.641 185.769 150.741L209.564 180.884Z" fill="#D7E0D9"/>
<path fill-rule="evenodd" clip-rule="evenodd" d="M188.749 87.6958C210.255 87.6958 227.686 101.772 227.686 119.14C227.686 124.205 226.171 129.185 223.291 133.665L188.749 191.78L154.207 133.665C151.326 129.185 149.812 124.205 149.812 119.14C149.812 101.772 167.243 87.6958 188.749 87.6958Z" fill="#FE9526"/>
<path fill-rule="evenodd" clip-rule="evenodd" d="M188.749 87.6958C210.255 87.6958 227.686 101.772 227.686 119.14C227.686 124.205 226.171 129.185 223.291 133.665L188.749 191.78L218.448 133.665C221.328 129.185 222.843 124.205 222.843 119.14C222.843 102.427 206.692 88.764 186.316 87.7647C187.127 87.713 187.938 87.6958 188.749 87.6958Z" fill="#F29838"/>
<path fill-rule="evenodd" clip-rule="evenodd" d="M188.749 87.6958C191.181 87.6958 193.571 87.8853 195.875 88.2299C168.245 88.0921 144.222 110.181 158.623 134.216L188.749 191.522L188.813 191.66L188.749 191.78L154.207 133.665C151.326 129.185 149.812 124.205 149.812 119.14C149.812 101.772 167.243 87.6958 188.749 87.6958Z" fill="#FFC587"/>
<path d="M188.749 128.031C196.125 128.031 202.105 123.202 202.105 117.245C202.105 111.288 196.125 106.459 188.749 106.459C181.372 106.459 175.393 111.288 175.393 117.245C175.393 123.202 181.372 128.031 188.749 128.031Z" fill="#F5F5F5"/>
<path fill-rule="evenodd" clip-rule="evenodd" d="M194.787 107.613C199.118 109.405 202.105 113.041 202.105 117.245C202.105 123.189 196.131 128.03 188.749 128.03C185.911 128.03 183.266 127.307 181.111 126.083C182.903 126.824 184.973 127.238 187.127 127.238C194.51 127.238 200.483 122.414 200.483 116.452C200.483 112.799 198.222 109.56 194.787 107.613Z" fill="#C4C4DA"/>
</g>
<defs>
<clipPath id="clip0_573_817">
<path d="M35.3145 44.8218H417.269V297.233C417.269 313.801 403.838 327.233 387.269 327.233H65.3144C48.7459 327.233 35.3145 313.801 35.3145 297.233V44.8218Z" fill="white"/>
</clipPath>
</defs>
</svg>
