<svg width="511" height="262" viewBox="0 0 511 262" fill="none" xmlns="http://www.w3.org/2000/svg">
<g filter="url(#filter0_dddddddd_143_2446)">
<path d="M128.964 6.11146C128.967 2.79775 126.28 0.0937899 122.97 0.252322C92.0574 1.73295 62.7064 14.8313 40.7076 37.1194C17.2903 60.8448 4.12229 93.0399 4.10034 126.622C4.07839 160.205 17.2043 192.423 40.5906 216.19C62.5602 238.518 91.894 251.669 122.805 253.204C126.115 253.369 128.805 250.67 128.807 247.356L128.835 203.562C128.838 200.249 126.147 197.587 122.847 197.296C106.531 195.855 91.1585 188.625 79.4961 176.773C66.4145 163.478 59.0723 145.456 59.0845 126.671C59.0968 107.886 66.4626 89.8775 79.5616 76.6062C91.2395 64.7747 106.621 57.5727 122.939 56.1611C126.24 55.8755 128.934 53.2188 128.936 49.9051L128.964 6.11146Z" fill="url(#paint0_linear_143_2446)"/>
<path d="M216.468 126.813L119.281 126.726C115.967 126.723 113.279 129.407 113.277 132.721L113.25 173.48C113.248 176.794 115.932 179.483 119.246 179.486L167.039 179.528C170.353 179.531 173.037 182.22 173.035 185.534L173.003 234.207C173.001 237.521 175.686 240.21 178.999 240.213L216.394 240.246C219.707 240.249 222.396 237.565 222.398 234.251L222.464 132.819C222.466 129.505 219.782 126.816 216.468 126.813Z" fill="url(#paint1_linear_143_2446)"/>
<circle cx="443" cy="236" r="5" fill="#D9D9D9"/>
<path d="M251.29 163.5C251.126 162.998 250.909 162.548 250.641 162.15C250.378 161.748 250.062 161.405 249.694 161.121C249.331 160.838 248.918 160.621 248.456 160.472C247.994 160.323 247.487 160.249 246.935 160.249C246.03 160.249 245.207 160.482 244.466 160.95C243.726 161.417 243.136 162.105 242.699 163.015C242.261 163.925 242.043 165.041 242.043 166.364C242.043 167.686 242.264 168.802 242.706 169.712C243.149 170.622 243.748 171.31 244.504 171.778C245.259 172.245 246.109 172.479 247.054 172.479C247.929 172.479 248.7 172.292 249.366 171.919C250.037 171.542 250.559 171.01 250.932 170.324C251.31 169.632 251.499 168.82 251.499 167.885L252.065 168.004L247.472 168.004L247.472 166.364L253.288 166.364L253.288 168.004C253.288 169.262 253.02 170.356 252.483 171.286C251.951 172.215 251.215 172.936 250.276 173.448C249.341 173.955 248.267 174.209 247.054 174.209C245.702 174.209 244.514 173.891 243.489 173.254C242.47 172.618 241.675 171.713 241.103 170.54C240.536 169.366 240.253 167.974 240.253 166.364C240.253 165.156 240.414 164.069 240.738 163.105C241.066 162.135 241.528 161.31 242.125 160.629C242.721 159.948 243.427 159.426 244.243 159.063C245.058 158.7 245.955 158.518 246.935 158.518C247.74 158.518 248.491 158.64 249.187 158.884C249.888 159.123 250.512 159.463 251.059 159.906C251.61 160.343 252.07 160.868 252.438 161.479C252.806 162.086 253.06 162.759 253.199 163.5L251.29 163.5ZM261.02 174.239C259.916 174.239 258.964 173.995 258.164 173.508C257.368 173.016 256.754 172.33 256.322 171.45C255.894 170.565 255.68 169.536 255.68 168.362C255.68 167.189 255.894 166.155 256.322 165.26C256.754 164.36 257.356 163.659 258.126 163.157C258.902 162.65 259.807 162.396 260.841 162.396C261.437 162.396 262.027 162.496 262.608 162.695C263.19 162.894 263.719 163.217 264.197 163.664C264.674 164.107 265.054 164.693 265.338 165.424C265.621 166.155 265.763 167.055 265.763 168.124L265.763 168.869L256.933 168.869L256.933 167.348L263.973 167.348C263.973 166.702 263.844 166.125 263.585 165.618C263.332 165.111 262.969 164.711 262.496 164.417C262.029 164.124 261.477 163.977 260.841 163.977C260.14 163.977 259.533 164.151 259.021 164.499C258.514 164.842 258.124 165.29 257.85 165.842C257.577 166.394 257.44 166.985 257.44 167.617L257.44 168.631C257.44 169.496 257.589 170.229 257.888 170.831C258.191 171.427 258.611 171.882 259.148 172.195C259.685 172.504 260.309 172.658 261.02 172.658C261.482 172.658 261.9 172.593 262.273 172.464C262.651 172.33 262.976 172.131 263.25 171.867C263.523 171.599 263.734 171.266 263.883 170.868L265.584 171.345C265.405 171.922 265.104 172.429 264.681 172.867C264.259 173.299 263.737 173.637 263.115 173.881C262.494 174.119 261.795 174.239 261.02 174.239ZM268.44 174L268.44 162.546L270.14 162.546L270.14 164.276L270.26 164.276C270.468 163.709 270.846 163.249 271.393 162.896C271.94 162.543 272.556 162.367 273.242 162.367C273.372 162.367 273.533 162.369 273.727 162.374C273.921 162.379 274.068 162.386 274.167 162.396L274.167 164.186C274.108 164.171 273.971 164.149 273.757 164.119C273.548 164.084 273.327 164.067 273.093 164.067C272.537 164.067 272.039 164.184 271.602 164.417C271.169 164.646 270.826 164.964 270.573 165.372C270.324 165.775 270.2 166.234 270.2 166.752L270.2 174L268.44 174ZM280.707 174.239C279.604 174.239 278.652 173.995 277.851 173.508C277.056 173.016 276.442 172.33 276.009 171.45C275.582 170.565 275.368 169.536 275.368 168.362C275.368 167.189 275.582 166.155 276.009 165.26C276.442 164.36 277.043 163.659 277.814 163.157C278.589 162.65 279.494 162.396 280.528 162.396C281.125 162.396 281.714 162.496 282.296 162.695C282.877 162.894 283.407 163.217 283.884 163.664C284.361 164.107 284.742 164.693 285.025 165.424C285.309 166.155 285.45 167.055 285.45 168.124L285.45 168.869L276.621 168.869L276.621 167.348L283.66 167.348C283.66 166.702 283.531 166.125 283.273 165.618C283.019 165.111 282.656 164.711 282.184 164.417C281.717 164.124 281.165 163.977 280.528 163.977C279.827 163.977 279.221 164.151 278.709 164.499C278.202 164.842 277.811 165.29 277.538 165.842C277.265 166.394 277.128 166.985 277.128 167.617L277.128 168.631C277.128 169.496 277.277 170.229 277.575 170.831C277.879 171.427 278.299 171.882 278.836 172.195C279.372 172.504 279.996 172.658 280.707 172.658C281.17 172.658 281.587 172.593 281.96 172.464C282.338 172.33 282.664 172.131 282.937 171.867C283.211 171.599 283.422 171.266 283.571 170.868L285.271 171.345C285.092 171.922 284.792 172.429 284.369 172.867C283.946 173.299 283.424 173.637 282.803 173.881C282.181 174.119 281.483 174.239 280.707 174.239ZM281.99 161.173L280.439 159.085L278.888 161.173L277.217 161.173L277.217 161.054L279.633 157.952L281.244 157.952L283.66 161.054L283.66 161.173L281.99 161.173ZM289.887 167.11L289.887 174L288.127 174L288.127 162.546L289.828 162.546L289.828 164.335L289.977 164.335C290.245 163.754 290.653 163.286 291.2 162.933C291.747 162.575 292.453 162.396 293.318 162.396C294.093 162.396 294.772 162.556 295.354 162.874C295.935 163.187 296.388 163.664 296.711 164.306C297.034 164.942 297.196 165.747 297.196 166.722L297.196 174L295.436 174L295.436 166.841C295.436 165.941 295.202 165.24 294.735 164.738C294.267 164.231 293.626 163.977 292.811 163.977C292.249 163.977 291.747 164.099 291.304 164.343C290.867 164.586 290.521 164.942 290.268 165.409C290.014 165.877 289.887 166.443 289.887 167.11ZM305.065 174.239C303.991 174.239 303.066 173.985 302.291 173.478C301.515 172.971 300.919 172.273 300.501 171.383C300.084 170.493 299.875 169.476 299.875 168.333C299.875 167.169 300.088 166.143 300.516 165.253C300.949 164.358 301.55 163.659 302.321 163.157C303.096 162.65 304.001 162.396 305.035 162.396C305.841 162.396 306.566 162.546 307.213 162.844C307.859 163.142 308.389 163.56 308.801 164.097C309.214 164.634 309.47 165.26 309.569 165.976L307.809 165.976C307.675 165.454 307.377 164.992 306.914 164.589C306.457 164.181 305.841 163.977 305.065 163.977C304.379 163.977 303.777 164.156 303.26 164.514C302.748 164.867 302.348 165.367 302.06 166.013C301.776 166.655 301.635 167.408 301.635 168.273C301.635 169.158 301.774 169.928 302.052 170.585C302.336 171.241 302.733 171.751 303.245 172.113C303.762 172.476 304.369 172.658 305.065 172.658C305.522 172.658 305.938 172.578 306.31 172.419C306.683 172.26 306.999 172.031 307.258 171.733C307.516 171.435 307.7 171.077 307.809 170.659L309.569 170.659C309.47 171.335 309.224 171.944 308.831 172.486C308.443 173.023 307.929 173.451 307.287 173.769C306.651 174.082 305.91 174.239 305.065 174.239ZM312.142 174L312.142 162.546L313.902 162.546L313.902 174L312.142 174ZM313.037 160.637C312.694 160.637 312.398 160.52 312.15 160.286C311.906 160.052 311.784 159.772 311.784 159.443C311.784 159.115 311.906 158.834 312.15 158.601C312.398 158.367 312.694 158.25 313.037 158.25C313.38 158.25 313.673 158.367 313.917 158.601C314.166 158.834 314.29 159.115 314.29 159.443C314.29 159.772 314.166 160.052 313.917 160.286C313.673 160.52 313.38 160.637 313.037 160.637ZM320.496 174.269C319.77 174.269 319.112 174.132 318.52 173.859C317.928 173.58 317.459 173.18 317.111 172.658C316.763 172.131 316.589 171.495 316.589 170.749C316.589 170.093 316.718 169.561 316.976 169.153C317.235 168.74 317.58 168.417 318.013 168.183C318.445 167.95 318.923 167.776 319.445 167.661C319.972 167.542 320.501 167.448 321.033 167.378C321.729 167.289 322.293 167.221 322.726 167.177C323.163 167.127 323.482 167.045 323.681 166.931C323.884 166.816 323.986 166.617 323.986 166.334L323.986 166.274C323.986 165.539 323.785 164.967 323.382 164.559C322.985 164.152 322.38 163.948 321.57 163.948C320.73 163.948 320.071 164.132 319.594 164.5C319.117 164.867 318.781 165.26 318.587 165.678L316.917 165.081C317.215 164.385 317.613 163.843 318.11 163.455C318.612 163.063 319.159 162.789 319.75 162.635C320.347 162.476 320.934 162.397 321.51 162.397C321.878 162.397 322.301 162.441 322.778 162.531C323.26 162.615 323.725 162.792 324.173 163.06C324.625 163.329 325 163.734 325.299 164.276C325.597 164.818 325.746 165.544 325.746 166.453L325.746 174L323.986 174L323.986 172.449L323.897 172.449C323.778 172.698 323.579 172.964 323.3 173.247C323.022 173.53 322.651 173.772 322.189 173.97C321.727 174.169 321.162 174.269 320.496 174.269ZM320.765 172.688C321.461 172.688 322.047 172.551 322.525 172.278C323.007 172.004 323.37 171.651 323.613 171.219C323.862 170.786 323.986 170.331 323.986 169.854L323.986 168.243C323.912 168.333 323.748 168.415 323.494 168.489C323.246 168.559 322.957 168.621 322.629 168.676C322.306 168.725 321.99 168.77 321.682 168.81C321.379 168.845 321.133 168.875 320.944 168.899C320.486 168.959 320.059 169.056 319.661 169.19C319.268 169.319 318.95 169.516 318.706 169.779C318.468 170.038 318.349 170.391 318.349 170.838C318.349 171.45 318.575 171.912 319.027 172.225C319.485 172.534 320.064 172.688 320.765 172.688ZM244.936 199.239C243.982 199.239 243.139 198.998 242.408 198.515C241.677 198.028 241.106 197.342 240.693 196.457C240.28 195.567 240.074 194.516 240.074 193.303C240.074 192.099 240.28 191.055 240.693 190.17C241.106 189.286 241.68 188.602 242.416 188.12C243.151 187.637 244.002 187.396 244.966 187.396C245.712 187.396 246.301 187.521 246.733 187.769C247.171 188.013 247.504 188.291 247.733 188.604C247.966 188.913 248.148 189.166 248.277 189.365L248.426 189.365L248.426 183.727L250.186 183.727L250.186 199L248.486 199L248.486 197.24L248.277 197.24C248.148 197.449 247.964 197.712 247.725 198.031C247.487 198.344 247.146 198.625 246.704 198.873C246.261 199.117 245.672 199.239 244.936 199.239ZM245.175 197.658C245.881 197.658 246.477 197.474 246.965 197.106C247.452 196.733 247.822 196.218 248.076 195.562C248.329 194.901 248.456 194.138 248.456 193.273C248.456 192.418 248.332 191.669 248.083 191.028C247.835 190.382 247.467 189.88 246.98 189.522C246.492 189.159 245.891 188.977 245.175 188.977C244.429 188.977 243.808 189.169 243.31 189.552C242.818 189.929 242.448 190.444 242.199 191.095C241.956 191.741 241.834 192.467 241.834 193.273C241.834 194.088 241.958 194.829 242.207 195.495C242.46 196.156 242.833 196.683 243.325 197.076C243.823 197.464 244.439 197.658 245.175 197.658ZM258.456 199.239C257.353 199.239 256.401 198.995 255.6 198.508C254.805 198.016 254.191 197.33 253.758 196.45C253.331 195.565 253.117 194.536 253.117 193.362C253.117 192.189 253.331 191.155 253.758 190.26C254.191 189.36 254.792 188.659 255.563 188.157C256.339 187.65 257.243 187.396 258.277 187.396C258.874 187.396 259.463 187.496 260.045 187.695C260.627 187.894 261.156 188.217 261.633 188.664C262.111 189.107 262.491 189.693 262.774 190.424C263.058 191.155 263.199 192.055 263.199 193.124L263.199 193.869L254.37 193.869L254.37 192.348L261.41 192.348C261.41 191.702 261.28 191.125 261.022 190.618C260.768 190.111 260.405 189.711 259.933 189.417C259.466 189.124 258.914 188.977 258.277 188.977C257.576 188.977 256.97 189.151 256.458 189.499C255.951 189.842 255.56 190.29 255.287 190.842C255.014 191.394 254.877 191.985 254.877 192.617L254.877 193.631C254.877 194.496 255.026 195.229 255.324 195.831C255.628 196.427 256.048 196.882 256.585 197.195C257.122 197.504 257.746 197.658 258.456 197.658C258.919 197.658 259.336 197.593 259.709 197.464C260.087 197.33 260.413 197.131 260.686 196.867C260.96 196.599 261.171 196.266 261.32 195.868L263.02 196.345C262.841 196.922 262.541 197.429 262.118 197.867C261.695 198.299 261.173 198.637 260.552 198.881C259.931 199.119 259.232 199.239 258.456 199.239ZM271.186 185.368L271.186 183.727L282.641 183.727L282.641 185.368L277.838 185.368L277.838 199L275.989 199L275.989 185.368L271.186 185.368ZM290.059 199.239C288.955 199.239 288.003 198.995 287.203 198.508C286.407 198.016 285.793 197.33 285.361 196.45C284.933 195.565 284.719 194.536 284.719 193.362C284.719 192.189 284.933 191.155 285.361 190.26C285.793 189.36 286.395 188.659 287.165 188.157C287.941 187.65 288.846 187.396 289.88 187.396C290.477 187.396 291.066 187.496 291.647 187.695C292.229 187.894 292.759 188.217 293.236 188.664C293.713 189.107 294.093 189.693 294.377 190.424C294.66 191.155 294.802 192.055 294.802 193.124L294.802 193.869L285.972 193.869L285.972 192.348L293.012 192.348C293.012 191.702 292.883 191.125 292.624 190.618C292.371 190.111 292.008 189.711 291.536 189.417C291.068 189.124 290.516 188.977 289.88 188.977C289.179 188.977 288.572 189.151 288.06 189.499C287.553 189.842 287.163 190.29 286.89 190.842C286.616 191.394 286.479 191.985 286.479 192.617L286.479 193.631C286.479 194.496 286.629 195.229 286.927 195.831C287.23 196.427 287.65 196.882 288.187 197.195C288.724 197.504 289.348 197.658 290.059 197.658C290.521 197.658 290.939 197.593 291.312 197.464C291.69 197.33 292.015 197.131 292.289 196.867C292.562 196.599 292.773 196.266 292.923 195.868L294.623 196.345C294.444 196.922 294.143 197.429 293.721 197.867C293.298 198.299 292.776 198.637 292.155 198.881C291.533 199.119 290.835 199.239 290.059 199.239ZM302.133 199.239C301.059 199.239 300.134 198.985 299.358 198.478C298.583 197.971 297.986 197.273 297.569 196.383C297.151 195.493 296.942 194.476 296.942 193.333C296.942 192.169 297.156 191.143 297.583 190.253C298.016 189.358 298.618 188.659 299.388 188.157C300.164 187.65 301.069 187.396 302.103 187.396C302.908 187.396 303.634 187.546 304.28 187.844C304.927 188.142 305.456 188.56 305.869 189.097C306.281 189.634 306.537 190.26 306.637 190.976L304.877 190.976C304.743 190.454 304.444 189.992 303.982 189.589C303.525 189.181 302.908 188.977 302.132 188.977C301.446 188.977 300.845 189.156 300.328 189.514C299.816 189.867 299.416 190.367 299.127 191.013C298.844 191.655 298.702 192.408 298.702 193.273C298.702 194.158 298.841 194.928 299.12 195.585C299.403 196.241 299.801 196.751 300.313 197.113C300.83 197.476 301.436 197.658 302.132 197.658C302.59 197.658 303.005 197.578 303.378 197.419C303.751 197.26 304.066 197.031 304.325 196.733C304.583 196.435 304.767 196.077 304.877 195.659L306.637 195.659C306.537 196.335 306.291 196.944 305.898 197.486C305.511 198.023 304.996 198.451 304.355 198.769C303.718 199.082 302.978 199.239 302.133 199.239ZM310.969 192.11L310.97 199L309.21 199L309.21 187.546L310.91 187.546L310.91 189.335L311.059 189.335C311.327 188.754 311.735 188.286 312.282 187.933C312.829 187.575 313.535 187.397 314.4 187.397C315.175 187.397 315.854 187.556 316.436 187.874C317.017 188.187 317.47 188.664 317.793 189.306C318.116 189.942 318.278 190.747 318.278 191.722L318.278 199L316.518 199L316.518 191.841C316.518 190.941 316.284 190.24 315.817 189.738C315.349 189.231 314.708 188.977 313.893 188.977C313.331 188.977 312.829 189.099 312.386 189.343C311.949 189.586 311.603 189.942 311.35 190.409C311.096 190.877 310.969 191.443 310.969 192.11ZM326.147 199.239C325.113 199.239 324.206 198.993 323.425 198.501C322.65 198.008 322.043 197.32 321.606 196.435C321.173 195.55 320.957 194.516 320.957 193.333C320.957 192.139 321.173 191.098 321.606 190.208C322.043 189.318 322.65 188.627 323.425 188.135C324.206 187.643 325.113 187.397 326.147 187.397C327.181 187.397 328.086 187.643 328.862 188.135C329.642 188.627 330.249 189.318 330.681 190.208C331.119 191.098 331.337 192.139 331.337 193.333C331.337 194.516 331.119 195.55 330.681 196.435C330.249 197.32 329.642 198.008 328.862 198.501C328.086 198.993 327.181 199.239 326.147 199.239ZM326.147 197.658C326.933 197.658 327.579 197.457 328.086 197.054C328.593 196.651 328.969 196.122 329.212 195.465C329.456 194.809 329.578 194.098 329.578 193.333C329.578 192.567 329.456 191.854 329.212 191.192C328.969 190.531 328.593 189.997 328.086 189.589C327.579 189.181 326.933 188.978 326.147 188.978C325.362 188.978 324.715 189.181 324.208 189.589C323.701 189.997 323.326 190.531 323.082 191.192C322.839 191.854 322.717 192.567 322.717 193.333C322.717 194.098 322.839 194.809 323.082 195.465C323.326 196.122 323.701 196.651 324.208 197.054C324.715 197.457 325.362 197.658 326.147 197.658ZM335.784 183.728L335.784 199L334.024 199L334.024 183.728L335.784 183.728ZM343.661 199.239C342.627 199.239 341.719 198.993 340.939 198.501C340.163 198.008 339.557 197.32 339.119 196.435C338.687 195.55 338.47 194.516 338.47 193.333C338.47 192.139 338.687 191.098 339.119 190.208C339.557 189.318 340.163 188.627 340.939 188.135C341.719 187.643 342.627 187.397 343.661 187.397C344.695 187.397 345.6 187.643 346.375 188.135C347.156 188.627 347.762 189.318 348.195 190.208C348.632 191.098 348.851 192.139 348.851 193.333C348.851 194.516 348.632 195.55 348.195 196.435C347.762 197.32 347.156 198.008 346.375 198.501C345.6 198.993 344.695 199.239 343.661 199.239ZM343.661 197.658C344.446 197.658 345.093 197.457 345.6 197.054C346.107 196.651 346.482 196.122 346.726 195.465C346.969 194.809 347.091 194.098 347.091 193.333C347.091 192.567 346.969 191.854 346.726 191.192C346.482 190.531 346.107 189.997 345.6 189.589C345.093 189.181 344.446 188.978 343.661 188.978C342.875 188.978 342.229 189.181 341.722 189.589C341.215 189.997 340.839 190.531 340.596 191.192C340.352 191.854 340.23 192.567 340.23 193.333C340.23 194.098 340.352 194.809 340.596 195.465C340.839 196.122 341.215 196.651 341.722 197.054C342.229 197.457 342.875 197.658 343.661 197.658ZM356.161 203.534C355.311 203.534 354.58 203.425 353.969 203.206C353.357 202.992 352.848 202.709 352.44 202.356C352.037 202.008 351.717 201.635 351.478 201.238L352.88 200.253C353.039 200.462 353.24 200.701 353.484 200.969C353.728 201.242 354.061 201.479 354.483 201.678C354.911 201.881 355.47 201.983 356.161 201.983C357.086 201.983 357.849 201.76 358.451 201.312C359.052 200.865 359.353 200.164 359.353 199.209L359.353 196.882L359.204 196.882C359.075 197.091 358.891 197.35 358.652 197.658C358.418 197.961 358.08 198.232 357.638 198.471C357.2 198.705 356.609 198.821 355.863 198.821C354.938 198.821 354.108 198.603 353.372 198.165C352.641 197.728 352.062 197.091 351.635 196.256C351.212 195.421 351.001 194.407 351.001 193.213C351.001 192.04 351.207 191.018 351.62 190.148C352.032 189.273 352.607 188.597 353.342 188.12C354.078 187.638 354.928 187.397 355.893 187.397C356.639 187.397 357.23 187.521 357.668 187.769C358.11 188.013 358.448 188.292 358.682 188.605C358.92 188.913 359.104 189.167 359.234 189.365L359.413 189.365L359.413 187.546L361.113 187.546L361.113 199.328C361.113 200.313 360.889 201.113 360.442 201.73C359.999 202.351 359.403 202.806 358.652 203.094C357.906 203.388 357.076 203.534 356.161 203.534ZM356.102 197.24C356.808 197.24 357.404 197.079 357.891 196.756C358.379 196.432 358.749 195.968 359.003 195.361C359.256 194.755 359.383 194.029 359.383 193.184C359.383 192.358 359.259 191.63 359.01 190.999C358.761 190.367 358.393 189.872 357.906 189.515C357.419 189.157 356.817 188.978 356.102 188.978C355.356 188.978 354.734 189.167 354.237 189.544C353.745 189.922 353.375 190.429 353.126 191.066C352.882 191.702 352.761 192.408 352.761 193.184C352.761 193.979 352.885 194.682 353.134 195.294C353.387 195.901 353.76 196.378 354.252 196.726C354.749 197.069 355.366 197.24 356.102 197.24ZM364.335 199L364.335 187.546L366.094 187.546L366.095 199L364.335 199ZM365.229 185.637C364.886 185.637 364.591 185.52 364.342 185.286C364.098 185.053 363.977 184.772 363.977 184.444C363.977 184.115 364.098 183.834 364.342 183.601C364.591 183.367 364.886 183.25 365.229 183.25C365.572 183.25 365.866 183.367 366.109 183.601C366.358 183.835 366.482 184.115 366.482 184.444C366.482 184.772 366.358 185.053 366.109 185.286C365.866 185.52 365.572 185.637 365.229 185.637ZM372.689 199.269C371.963 199.269 371.304 199.132 370.712 198.859C370.121 198.58 369.651 198.18 369.303 197.658C368.955 197.131 368.781 196.495 368.781 195.749C368.781 195.093 368.91 194.561 369.169 194.153C369.427 193.74 369.773 193.417 370.205 193.184C370.638 192.95 371.115 192.776 371.637 192.662C372.164 192.542 372.694 192.448 373.226 192.378C373.922 192.289 374.486 192.222 374.918 192.177C375.356 192.127 375.674 192.045 375.873 191.931C376.077 191.816 376.179 191.618 376.179 191.334L376.179 191.275C376.179 190.539 375.977 189.967 375.575 189.559C375.177 189.152 374.573 188.948 373.763 188.948C372.922 188.948 372.264 189.132 371.786 189.5C371.309 189.868 370.973 190.26 370.78 190.678L369.109 190.081C369.407 189.385 369.805 188.843 370.302 188.456C370.804 188.063 371.351 187.789 371.943 187.635C372.54 187.476 373.126 187.397 373.703 187.397C374.071 187.397 374.493 187.441 374.971 187.531C375.453 187.615 375.918 187.792 376.365 188.06C376.818 188.329 377.193 188.734 377.491 189.276C377.79 189.818 377.939 190.544 377.939 191.453L377.939 199L376.179 199L376.179 197.449L376.089 197.449C375.97 197.698 375.771 197.964 375.493 198.247C375.214 198.531 374.844 198.772 374.382 198.971C373.919 199.169 373.355 199.269 372.689 199.269ZM372.957 197.688C373.653 197.688 374.24 197.551 374.717 197.278C375.199 197.004 375.562 196.651 375.806 196.219C376.054 195.786 376.179 195.331 376.179 194.854L376.179 193.243C376.104 193.333 375.94 193.415 375.687 193.489C375.438 193.559 375.15 193.621 374.821 193.676C374.498 193.726 374.183 193.77 373.874 193.81C373.571 193.845 373.325 193.875 373.136 193.9C372.679 193.959 372.251 194.056 371.853 194.19C371.461 194.32 371.143 194.516 370.899 194.779C370.66 195.038 370.541 195.391 370.541 195.838C370.541 196.45 370.767 196.912 371.22 197.225C371.677 197.534 372.256 197.688 372.957 197.688ZM389.265 190.111L387.684 190.559C387.584 190.295 387.438 190.039 387.244 189.791C387.055 189.537 386.796 189.328 386.468 189.164C386.14 189 385.72 188.918 385.208 188.918C384.507 188.918 383.923 189.08 383.455 189.403C382.993 189.721 382.762 190.126 382.762 190.618C382.762 191.056 382.921 191.401 383.239 191.655C383.557 191.908 384.054 192.12 384.73 192.289L386.431 192.706C387.455 192.955 388.218 193.335 388.72 193.847C389.222 194.354 389.473 195.008 389.473 195.809C389.473 196.465 389.284 197.052 388.907 197.569C388.534 198.086 388.012 198.493 387.341 198.792C386.669 199.09 385.889 199.239 384.999 199.239C383.831 199.239 382.864 198.985 382.098 198.478C381.332 197.971 380.848 197.23 380.644 196.256L382.314 195.838C382.473 196.455 382.774 196.917 383.217 197.226C383.664 197.534 384.248 197.688 384.969 197.688C385.789 197.688 386.441 197.514 386.923 197.166C387.41 196.813 387.654 196.39 387.654 195.898C387.654 195.5 387.515 195.167 387.236 194.899C386.958 194.625 386.53 194.422 385.954 194.287L384.044 193.84C382.995 193.591 382.225 193.206 381.733 192.684C381.245 192.157 381.002 191.498 381.002 190.708C381.002 190.061 381.183 189.49 381.546 188.993C381.914 188.495 382.414 188.105 383.045 187.822C383.681 187.538 384.402 187.397 385.208 187.397C386.341 187.397 387.231 187.645 387.878 188.142C388.529 188.64 388.991 189.296 389.265 190.111ZM244.936 224.239C243.982 224.239 243.139 223.998 242.408 223.515C241.677 223.028 241.106 222.342 240.693 221.457C240.28 220.567 240.074 219.516 240.074 218.303C240.074 217.099 240.28 216.055 240.693 215.17C241.106 214.286 241.68 213.602 242.416 213.12C243.151 212.637 244.002 212.396 244.966 212.396C245.712 212.396 246.301 212.521 246.733 212.769C247.171 213.013 247.504 213.291 247.733 213.604C247.966 213.913 248.148 214.166 248.277 214.365L248.426 214.365L248.426 208.727L250.186 208.727L250.186 224L248.486 224L248.486 222.24L248.277 222.24C248.148 222.449 247.964 222.712 247.725 223.031C247.487 223.344 247.146 223.625 246.704 223.873C246.261 224.117 245.672 224.239 244.936 224.239ZM245.175 222.658C245.881 222.658 246.477 222.474 246.965 222.106C247.452 221.733 247.822 221.218 248.076 220.562C248.329 219.901 248.456 219.138 248.456 218.273C248.456 217.418 248.332 216.669 248.083 216.028C247.835 215.382 247.467 214.88 246.98 214.522C246.492 214.159 245.891 213.977 245.175 213.977C244.429 213.977 243.808 214.169 243.311 214.552C242.818 214.929 242.448 215.444 242.199 216.095C241.956 216.741 241.834 217.467 241.834 218.273C241.834 219.088 241.958 219.829 242.207 220.495C242.46 221.156 242.833 221.683 243.325 222.076C243.823 222.464 244.439 222.658 245.175 222.658ZM258.457 224.239C257.353 224.239 256.401 223.995 255.6 223.508C254.805 223.016 254.191 222.33 253.758 221.45C253.331 220.565 253.117 219.536 253.117 218.362C253.117 217.189 253.331 216.155 253.758 215.26C254.191 214.36 254.792 213.659 255.563 213.157C256.339 212.65 257.243 212.396 258.278 212.396C258.874 212.396 259.463 212.496 260.045 212.695C260.627 212.894 261.156 213.217 261.633 213.664C262.111 214.107 262.491 214.693 262.774 215.424C263.058 216.155 263.199 217.055 263.199 218.124L263.199 218.869L254.37 218.869L254.37 217.348L261.41 217.348C261.41 216.702 261.28 216.125 261.022 215.618C260.768 215.111 260.405 214.711 259.933 214.417C259.466 214.124 258.914 213.977 258.278 213.977C257.577 213.977 256.97 214.151 256.458 214.499C255.951 214.842 255.561 215.29 255.287 215.842C255.014 216.394 254.877 216.985 254.877 217.617L254.877 218.631C254.877 219.496 255.026 220.229 255.324 220.831C255.628 221.427 256.048 221.882 256.585 222.195C257.122 222.504 257.746 222.658 258.457 222.658C258.919 222.658 259.336 222.593 259.709 222.464C260.087 222.33 260.413 222.131 260.686 221.867C260.96 221.599 261.171 221.266 261.32 220.868L263.02 221.345C262.841 221.922 262.541 222.429 262.118 222.867C261.696 223.299 261.173 223.637 260.552 223.881C259.931 224.119 259.232 224.239 258.457 224.239ZM272.648 224L270.709 224L276.317 208.727L278.226 208.727L283.834 224L281.895 224L277.331 211.144L277.212 211.144L272.648 224ZM273.364 218.034L281.179 218.034L281.179 219.675L273.364 219.675L273.364 218.034ZM285.974 228.296L285.974 212.546L287.675 212.546L287.675 214.365L287.883 214.365C288.013 214.166 288.192 213.913 288.42 213.605C288.654 213.291 288.987 213.013 289.42 212.769C289.857 212.521 290.449 212.396 291.194 212.396C292.159 212.396 293.009 212.638 293.745 213.12C294.481 213.602 295.055 214.286 295.468 215.171C295.88 216.056 296.086 217.1 296.086 218.303C296.086 219.516 295.88 220.567 295.468 221.457C295.055 222.342 294.483 223.028 293.752 223.515C293.021 223.998 292.179 224.239 291.224 224.239C290.488 224.239 289.899 224.117 289.457 223.873C289.014 223.625 288.674 223.344 288.435 223.031C288.197 222.712 288.013 222.449 287.883 222.24L287.734 222.24L287.734 228.296L285.974 228.296ZM287.704 218.273C287.704 219.138 287.831 219.901 288.085 220.562C288.338 221.219 288.709 221.733 289.196 222.106C289.683 222.474 290.28 222.658 290.986 222.658C291.721 222.658 292.335 222.464 292.828 222.076C293.325 221.683 293.698 221.156 293.946 220.495C294.2 219.829 294.327 219.088 294.327 218.273C294.327 217.467 294.202 216.742 293.954 216.095C293.71 215.444 293.34 214.929 292.842 214.552C292.35 214.169 291.731 213.977 290.986 213.977C290.27 213.977 289.668 214.159 289.181 214.522C288.694 214.88 288.326 215.382 288.077 216.028C287.829 216.67 287.704 217.418 287.704 218.273ZM303.425 224.239C302.39 224.239 301.483 223.993 300.703 223.501C299.927 223.008 299.32 222.32 298.883 221.435C298.45 220.55 298.234 219.516 298.234 218.333C298.234 217.139 298.45 216.098 298.883 215.208C299.32 214.318 299.927 213.627 300.703 213.135C301.483 212.643 302.39 212.396 303.425 212.396C304.459 212.396 305.363 212.643 306.139 213.135C306.92 213.627 307.526 214.318 307.959 215.208C308.396 216.098 308.615 217.139 308.615 218.333C308.615 219.516 308.396 220.55 307.959 221.435C307.526 222.32 306.92 223.008 306.139 223.501C305.363 223.993 304.459 224.239 303.425 224.239ZM303.425 222.658C304.21 222.658 304.856 222.456 305.363 222.054C305.871 221.651 306.246 221.122 306.49 220.465C306.733 219.809 306.855 219.098 306.855 218.333C306.855 217.567 306.733 216.854 306.49 216.192C306.246 215.531 305.871 214.997 305.363 214.589C304.856 214.181 304.21 213.977 303.425 213.977C302.639 213.977 301.993 214.181 301.486 214.589C300.979 214.997 300.603 215.531 300.36 216.192C300.116 216.854 299.994 217.567 299.994 218.333C299.994 219.098 300.116 219.809 300.36 220.465C300.603 221.122 300.979 221.651 301.486 222.054C301.993 222.456 302.639 222.658 303.425 222.658ZM311.301 224L311.301 212.546L313.061 212.546L313.061 224L311.301 224ZM312.196 210.637C311.853 210.637 311.557 210.52 311.309 210.286C311.065 210.052 310.943 209.771 310.943 209.443C310.943 209.115 311.065 208.834 311.309 208.601C311.557 208.367 311.853 208.25 312.196 208.25C312.539 208.25 312.833 208.367 313.076 208.601C313.325 208.834 313.449 209.115 313.449 209.443C313.449 209.772 313.325 210.052 313.076 210.286C312.833 210.52 312.539 210.637 312.196 210.637ZM320.938 224.239C319.904 224.239 318.997 223.993 318.216 223.501C317.441 223.008 316.834 222.32 316.397 221.435C315.964 220.55 315.748 219.516 315.748 218.333C315.748 217.139 315.964 216.098 316.397 215.208C316.834 214.318 317.441 213.627 318.216 213.135C318.997 212.643 319.904 212.397 320.938 212.397C321.972 212.397 322.877 212.643 323.653 213.135C324.433 213.627 325.04 214.318 325.472 215.208C325.91 216.098 326.129 217.139 326.129 218.333C326.129 219.516 325.91 220.55 325.472 221.435C325.04 222.32 324.433 223.008 323.653 223.501C322.877 223.993 321.972 224.239 320.938 224.239ZM320.938 222.658C321.724 222.658 322.37 222.457 322.877 222.054C323.384 221.651 323.76 221.122 324.003 220.465C324.247 219.809 324.369 219.098 324.369 218.333C324.369 217.567 324.247 216.854 324.003 216.192C323.76 215.531 323.384 214.997 322.877 214.589C322.37 214.181 321.724 213.977 320.938 213.977C320.153 213.977 319.506 214.181 318.999 214.589C318.492 214.997 318.117 215.531 317.873 216.192C317.63 216.854 317.508 217.567 317.508 218.333C317.508 219.098 317.63 219.809 317.873 220.465C318.117 221.122 318.492 221.651 318.999 222.054C319.506 222.457 320.153 222.658 320.938 222.658ZM338.092 224.269C337.366 224.269 336.707 224.132 336.116 223.859C335.524 223.58 335.054 223.18 334.706 222.658C334.358 222.131 334.184 221.495 334.184 220.749C334.184 220.093 334.314 219.561 334.572 219.153C334.831 218.74 335.176 218.417 335.609 218.183C336.041 217.95 336.519 217.776 337.041 217.661C337.568 217.542 338.097 217.448 338.629 217.378C339.325 217.289 339.889 217.222 340.322 217.177C340.759 217.127 341.078 217.045 341.276 216.931C341.48 216.816 341.582 216.617 341.582 216.334L341.582 216.274C341.582 215.539 341.381 214.967 340.978 214.559C340.58 214.152 339.976 213.948 339.166 213.948C338.326 213.948 337.667 214.132 337.19 214.5C336.712 214.867 336.377 215.26 336.183 215.678L334.513 215.081C334.811 214.385 335.209 213.843 335.706 213.456C336.208 213.063 336.755 212.789 337.346 212.635C337.943 212.476 338.53 212.397 339.106 212.397C339.474 212.397 339.897 212.441 340.374 212.531C340.856 212.615 341.321 212.792 341.769 213.06C342.221 213.329 342.596 213.734 342.895 214.276C343.193 214.818 343.342 215.544 343.342 216.453L343.342 224L341.582 224L341.582 222.449L341.493 222.449C341.373 222.698 341.174 222.964 340.896 223.247C340.618 223.53 340.247 223.772 339.785 223.97C339.323 224.169 338.758 224.269 338.092 224.269ZM338.361 222.688C339.057 222.688 339.643 222.551 340.12 222.278C340.603 222.004 340.966 221.651 341.209 221.219C341.458 220.786 341.582 220.331 341.582 219.854L341.582 218.243C341.508 218.333 341.343 218.415 341.09 218.489C340.841 218.559 340.553 218.621 340.225 218.676C339.902 218.725 339.586 218.77 339.278 218.81C338.975 218.845 338.728 218.875 338.54 218.899C338.082 218.959 337.655 219.056 337.257 219.19C336.864 219.32 336.546 219.516 336.302 219.779C336.064 220.038 335.944 220.391 335.944 220.838C335.944 221.45 336.171 221.912 336.623 222.225C337.08 222.534 337.66 222.688 338.361 222.688ZM338.48 210.995L336.153 207.534L338.211 207.534L340.031 210.995L338.48 210.995ZM363.14 213.5C362.975 212.998 362.759 212.548 362.491 212.151C362.227 211.748 361.912 211.405 361.544 211.121C361.181 210.838 360.768 210.622 360.306 210.473C359.843 210.323 359.336 210.249 358.784 210.249C357.88 210.249 357.057 210.483 356.316 210.95C355.575 211.417 354.986 212.106 354.549 213.016C354.111 213.925 353.892 215.042 353.892 216.364C353.892 217.686 354.114 218.803 354.556 219.712C354.999 220.622 355.598 221.311 356.353 221.778C357.109 222.245 357.959 222.479 358.904 222.479C359.779 222.479 360.549 222.293 361.216 221.92C361.887 221.542 362.409 221.01 362.782 220.324C363.159 219.633 363.348 218.82 363.348 217.885L363.915 218.005L359.321 218.005L359.321 216.364L365.138 216.364L365.138 218.005C365.138 219.262 364.87 220.356 364.333 221.286C363.801 222.216 363.065 222.936 362.125 223.448C361.191 223.956 360.117 224.209 358.904 224.209C357.552 224.209 356.363 223.891 355.339 223.255C354.32 222.618 353.525 221.713 352.953 220.54C352.386 219.367 352.103 217.975 352.103 216.364C352.103 215.156 352.264 214.07 352.587 213.105C352.915 212.136 353.378 211.31 353.974 210.629C354.571 209.948 355.277 209.426 356.092 209.063C356.908 208.7 357.805 208.519 358.784 208.519C359.59 208.519 360.341 208.641 361.037 208.884C361.738 209.123 362.361 209.463 362.908 209.906C363.46 210.343 363.92 210.868 364.288 211.479C364.656 212.086 364.909 212.76 365.049 213.5L363.14 213.5ZM372.87 224.239C371.766 224.239 370.814 223.995 370.013 223.508C369.218 223.016 368.604 222.33 368.171 221.45C367.744 220.565 367.53 219.536 367.53 218.363C367.53 217.189 367.744 216.155 368.171 215.26C368.604 214.36 369.206 213.659 369.976 213.157C370.752 212.65 371.657 212.397 372.691 212.397C373.287 212.397 373.876 212.496 374.458 212.695C375.04 212.894 375.569 213.217 376.046 213.664C376.524 214.107 376.904 214.694 377.187 215.424C377.471 216.155 377.612 217.055 377.612 218.124L377.612 218.87L368.783 218.87L368.783 217.348L375.823 217.348C375.823 216.702 375.693 216.125 375.435 215.618C375.181 215.111 374.818 214.711 374.346 214.418C373.879 214.124 373.327 213.978 372.691 213.978C371.99 213.978 371.383 214.152 370.871 214.5C370.364 214.843 369.974 215.29 369.7 215.842C369.427 216.394 369.29 216.985 369.29 217.617L369.29 218.631C369.29 219.496 369.439 220.229 369.737 220.831C370.041 221.428 370.461 221.882 370.998 222.196C371.535 222.504 372.159 222.658 372.87 222.658C373.332 222.658 373.75 222.593 374.122 222.464C374.5 222.33 374.826 222.131 375.099 221.868C375.373 221.599 375.584 221.266 375.733 220.868L377.434 221.346C377.255 221.922 376.954 222.429 376.531 222.867C376.109 223.299 375.587 223.637 374.965 223.881C374.344 224.12 373.645 224.239 372.87 224.239ZM388.403 215.111L386.822 215.559C386.723 215.295 386.576 215.039 386.382 214.791C386.193 214.537 385.935 214.328 385.607 214.164C385.279 214 384.859 213.918 384.346 213.918C383.645 213.918 383.061 214.08 382.594 214.403C382.132 214.721 381.9 215.126 381.9 215.618C381.9 216.056 382.06 216.401 382.378 216.655C382.696 216.908 383.193 217.12 383.869 217.289L385.57 217.706C386.594 217.955 387.357 218.335 387.859 218.847C388.361 219.354 388.612 220.008 388.612 220.809C388.612 221.465 388.423 222.052 388.045 222.569C387.673 223.086 387.15 223.493 386.479 223.792C385.808 224.09 385.028 224.239 384.138 224.239C382.969 224.239 382.002 223.985 381.237 223.478C380.471 222.971 379.986 222.23 379.783 221.256L381.453 220.838C381.612 221.455 381.913 221.917 382.355 222.226C382.803 222.534 383.387 222.688 384.108 222.688C384.928 222.688 385.579 222.514 386.062 222.166C386.549 221.813 386.793 221.39 386.793 220.898C386.793 220.5 386.653 220.167 386.375 219.899C386.097 219.625 385.669 219.422 385.092 219.287L383.183 218.84C382.134 218.591 381.364 218.206 380.871 217.684C380.384 217.157 380.141 216.498 380.141 215.708C380.141 215.061 380.322 214.49 380.685 213.993C381.053 213.495 381.552 213.105 382.184 212.822C382.82 212.538 383.541 212.397 384.346 212.397C385.48 212.397 386.37 212.645 387.016 213.142C387.668 213.64 388.13 214.296 388.403 215.111ZM396.243 212.546L396.243 214.037L390.307 214.037L390.307 212.546L396.243 212.546ZM392.037 209.802L393.797 209.802L393.797 220.719C393.797 221.216 393.869 221.589 394.013 221.838C394.162 222.081 394.351 222.245 394.58 222.33C394.814 222.41 395.06 222.449 395.318 222.449C395.512 222.449 395.671 222.439 395.795 222.419C395.92 222.395 396.019 222.375 396.094 222.36L396.452 223.941C396.332 223.986 396.166 224.03 395.952 224.075C395.738 224.125 395.467 224.15 395.139 224.15C394.642 224.15 394.155 224.043 393.678 223.829C393.205 223.615 392.813 223.289 392.499 222.852C392.191 222.414 392.037 221.863 392.037 221.196L392.037 209.802ZM402.261 224.269C401.535 224.269 400.876 224.132 400.285 223.859C399.693 223.58 399.223 223.18 398.875 222.658C398.527 222.131 398.353 221.495 398.353 220.749C398.353 220.093 398.483 219.561 398.741 219.153C399 218.74 399.345 218.417 399.778 218.184C400.21 217.95 400.687 217.776 401.21 217.662C401.737 217.542 402.266 217.448 402.798 217.378C403.494 217.289 404.058 217.222 404.491 217.177C404.928 217.127 405.246 217.045 405.445 216.931C405.649 216.816 405.751 216.618 405.751 216.334L405.751 216.275C405.751 215.539 405.55 214.967 405.147 214.559C404.749 214.152 404.145 213.948 403.335 213.948C402.495 213.948 401.836 214.132 401.359 214.5C400.881 214.868 400.546 215.26 400.352 215.678L398.681 215.081C398.98 214.385 399.377 213.843 399.875 213.456C400.377 213.063 400.924 212.789 401.515 212.635C402.112 212.476 402.698 212.397 403.275 212.397C403.643 212.397 404.066 212.441 404.543 212.531C405.025 212.616 405.49 212.792 405.937 213.06C406.39 213.329 406.765 213.734 407.064 214.276C407.362 214.818 407.511 215.544 407.511 216.454L407.511 224L405.751 224L405.751 222.449L405.662 222.449C405.542 222.698 405.343 222.964 405.065 223.247C404.787 223.531 404.416 223.772 403.954 223.971C403.491 224.169 402.927 224.269 402.261 224.269ZM402.529 222.688C403.226 222.688 403.812 222.551 404.289 222.278C404.772 222.004 405.135 221.651 405.378 221.219C405.627 220.786 405.751 220.331 405.751 219.854L405.751 218.243C405.676 218.333 405.512 218.415 405.259 218.489C405.01 218.559 404.722 218.621 404.394 218.676C404.071 218.726 403.755 218.77 403.447 218.81C403.143 218.845 402.897 218.875 402.708 218.9C402.251 218.959 401.824 219.056 401.426 219.19C401.033 219.32 400.715 219.516 400.471 219.78C400.233 220.038 400.113 220.391 400.113 220.838C400.113 221.45 400.339 221.912 400.792 222.226C401.249 222.534 401.828 222.688 402.529 222.688ZM401.098 211.174L399.725 211.114C399.725 210.353 399.942 209.732 400.374 209.25C400.812 208.763 401.351 208.519 401.993 208.519C402.276 208.519 402.527 208.569 402.746 208.668C402.964 208.763 403.173 208.872 403.372 208.996C403.571 209.12 403.775 209.232 403.984 209.332C404.197 209.426 404.439 209.473 404.707 209.473C404.99 209.473 405.229 209.364 405.423 209.145C405.622 208.922 405.721 208.653 405.721 208.34L407.064 208.459C407.064 209.235 406.845 209.851 406.407 210.309C405.975 210.766 405.438 210.995 404.797 210.995C404.453 210.995 404.17 210.948 403.946 210.853C403.723 210.754 403.524 210.642 403.35 210.517C403.176 210.393 402.992 210.284 402.798 210.189C402.604 210.09 402.365 210.04 402.082 210.04C401.799 210.04 401.562 210.152 401.374 210.376C401.19 210.595 401.098 210.861 401.098 211.174ZM415.377 224.239C414.343 224.239 413.435 223.993 412.655 223.501C411.879 223.009 411.273 222.32 410.835 221.435C410.403 220.55 410.186 219.516 410.186 218.333C410.186 217.14 410.403 216.098 410.835 215.208C411.273 214.318 411.879 213.627 412.655 213.135C413.435 212.643 414.343 212.397 415.377 212.397C416.411 212.397 417.316 212.643 418.091 213.135C418.872 213.627 419.478 214.318 419.911 215.208C420.348 216.098 420.567 217.14 420.567 218.333C420.567 219.516 420.348 220.55 419.911 221.435C419.478 222.32 418.872 223.009 418.091 223.501C417.316 223.993 416.411 224.239 415.377 224.239ZM415.377 222.658C416.162 222.658 416.809 222.457 417.316 222.054C417.823 221.651 418.198 221.122 418.442 220.466C418.685 219.809 418.807 219.098 418.807 218.333C418.807 217.567 418.685 216.854 418.442 216.193C418.198 215.531 417.823 214.997 417.316 214.589C416.808 214.182 416.162 213.978 415.377 213.978C414.591 213.978 413.945 214.182 413.438 214.589C412.931 214.997 412.555 215.531 412.312 216.193C412.068 216.854 411.946 217.567 411.946 218.333C411.946 219.098 412.068 219.809 412.312 220.466C412.555 221.122 412.931 221.651 413.438 222.054C413.945 222.457 414.591 222.658 415.377 222.658Z" fill="white"/>
<path d="M438.048 236L239 236" stroke="#49A9D1" stroke-width="3"/>
</g>
<defs>
<filter id="filter0_dddddddd_143_2446" x="0.100342" y="0.245605" width="451.9" height="260.966" filterUnits="userSpaceOnUse" color-interpolation-filters="sRGB">
<feFlood flood-opacity="0" result="BackgroundImageFix"/>
<feColorMatrix in="SourceAlpha" type="matrix" values="0 0 0 0 0 0 0 0 0 0 0 0 0 0 0 0 0 0 127 0" result="hardAlpha"/>
<feOffset dy="4"/>
<feGaussianBlur stdDeviation="2"/>
<feComposite in2="hardAlpha" operator="out"/>
<feColorMatrix type="matrix" values="0 0 0 0 0 0 0 0 0 0 0 0 0 0 0 0 0 0 0.25 0"/>
<feBlend mode="normal" in2="BackgroundImageFix" result="effect1_dropShadow_143_2446"/>
<feColorMatrix in="SourceAlpha" type="matrix" values="0 0 0 0 0 0 0 0 0 0 0 0 0 0 0 0 0 0 127 0" result="hardAlpha"/>
<feOffset dy="4"/>
<feGaussianBlur stdDeviation="2"/>
<feComposite in2="hardAlpha" operator="out"/>
<feColorMatrix type="matrix" values="0 0 0 0 0 0 0 0 0 0 0 0 0 0 0 0 0 0 0.25 0"/>
<feBlend mode="normal" in2="effect1_dropShadow_143_2446" result="effect2_dropShadow_143_2446"/>
<feColorMatrix in="SourceAlpha" type="matrix" values="0 0 0 0 0 0 0 0 0 0 0 0 0 0 0 0 0 0 127 0" result="hardAlpha"/>
<feOffset dy="4"/>
<feGaussianBlur stdDeviation="2"/>
<feComposite in2="hardAlpha" operator="out"/>
<feColorMatrix type="matrix" values="0 0 0 0 0 0 0 0 0 0 0 0 0 0 0 0 0 0 0.25 0"/>
<feBlend mode="normal" in2="effect2_dropShadow_143_2446" result="effect3_dropShadow_143_2446"/>
<feColorMatrix in="SourceAlpha" type="matrix" values="0 0 0 0 0 0 0 0 0 0 0 0 0 0 0 0 0 0 127 0" result="hardAlpha"/>
<feOffset dy="4"/>
<feGaussianBlur stdDeviation="2"/>
<feComposite in2="hardAlpha" operator="out"/>
<feColorMatrix type="matrix" values="0 0 0 0 0 0 0 0 0 0 0 0 0 0 0 0 0 0 0.25 0"/>
<feBlend mode="normal" in2="effect3_dropShadow_143_2446" result="effect4_dropShadow_143_2446"/>
<feColorMatrix in="SourceAlpha" type="matrix" values="0 0 0 0 0 0 0 0 0 0 0 0 0 0 0 0 0 0 127 0" result="hardAlpha"/>
<feOffset dy="4"/>
<feGaussianBlur stdDeviation="2"/>
<feComposite in2="hardAlpha" operator="out"/>
<feColorMatrix type="matrix" values="0 0 0 0 0 0 0 0 0 0 0 0 0 0 0 0 0 0 0.25 0"/>
<feBlend mode="normal" in2="effect4_dropShadow_143_2446" result="effect5_dropShadow_143_2446"/>
<feColorMatrix in="SourceAlpha" type="matrix" values="0 0 0 0 0 0 0 0 0 0 0 0 0 0 0 0 0 0 127 0" result="hardAlpha"/>
<feOffset dy="4"/>
<feGaussianBlur stdDeviation="2"/>
<feComposite in2="hardAlpha" operator="out"/>
<feColorMatrix type="matrix" values="0 0 0 0 0 0 0 0 0 0 0 0 0 0 0 0 0 0 0.25 0"/>
<feBlend mode="normal" in2="effect5_dropShadow_143_2446" result="effect6_dropShadow_143_2446"/>
<feColorMatrix in="SourceAlpha" type="matrix" values="0 0 0 0 0 0 0 0 0 0 0 0 0 0 0 0 0 0 127 0" result="hardAlpha"/>
<feOffset dy="4"/>
<feGaussianBlur stdDeviation="2"/>
<feComposite in2="hardAlpha" operator="out"/>
<feColorMatrix type="matrix" values="0 0 0 0 0 0 0 0 0 0 0 0 0 0 0 0 0 0 0.25 0"/>
<feBlend mode="normal" in2="effect6_dropShadow_143_2446" result="effect7_dropShadow_143_2446"/>
<feColorMatrix in="SourceAlpha" type="matrix" values="0 0 0 0 0 0 0 0 0 0 0 0 0 0 0 0 0 0 127 0" result="hardAlpha"/>
<feOffset dy="4"/>
<feGaussianBlur stdDeviation="2"/>
<feComposite in2="hardAlpha" operator="out"/>
<feColorMatrix type="matrix" values="0 0 0 0 0 0 0 0 0 0 0 0 0 0 0 0 0 0 0.25 0"/>
<feBlend mode="normal" in2="effect7_dropShadow_143_2446" result="effect8_dropShadow_143_2446"/>
<feBlend mode="normal" in="SourceGraphic" in2="effect8_dropShadow_143_2446" result="shape"/>
</filter>
<linearGradient id="paint0_linear_143_2446" x1="128.968" y1="0.111468" x2="128.742" y2="253.356" gradientUnits="userSpaceOnUse">
<stop stop-color="#5DE0E5"/>
<stop offset="0.784898" stop-color="#2A55B2"/>
</linearGradient>
<linearGradient id="paint1_linear_143_2446" x1="167.874" y1="126.77" x2="167.773" y2="240.202" gradientUnits="userSpaceOnUse">
<stop stop-color="#5DE0E5"/>
<stop offset="0.784898" stop-color="#2A55B2"/>
</linearGradient>
</defs>
</svg>
