<svg width="3374" height="3518" viewBox="0 0 3374 3518" fill="none" xmlns="http://www.w3.org/2000/svg">
<g opacity="0.07">
<ellipse cx="765" cy="628.5" rx="335" ry="332.5" fill="url(#paint0_linear_416_22)"/>
<ellipse cx="3039" cy="3185.5" rx="335" ry="332.5" fill="url(#paint1_linear_416_22)"/>
<circle cx="387" cy="1401" r="225" fill="url(#paint2_linear_416_22)"/>
<circle cx="2665" cy="2403" r="225" fill="url(#paint3_linear_416_22)"/>
<path d="M0 2970.32C0 2969.11 0.0996619 2967.9 0.297972 2966.71L142.386 2112.2C143.5 2109.5 144 2107.5 144.803 2105.22C153.174 2086.82 158.662 2076.83 169.848 2059.6C170.614 2058.2 172.576 2055.7 172.576 2055.7C172.576 2055.7 187.721 2037.75 195.5 2029.5C209.852 2013.2 217.605 2004.88 230.804 1991.78C231.6 1990.93 232.462 1990.14 233.383 1989.43C251.602 1972.86 262.62 1964.25 283.884 1950.25C284.959 1949.42 286.109 1948.69 287.319 1948.07C307.454 1935.94 318.811 1930.16 339.38 1921.33C340.458 1920.78 341.58 1920.31 342.735 1919.95C368.853 1909.1 383.582 1904.28 409.734 1898.54C411.898 1897.85 414.157 1897.5 416.429 1897.5C447.636 1894.65 465.5 1895.41 492.5 1897.5C519.5 1899.59 522.284 1900.64 538.322 1903.64C540.101 1903.88 541.844 1904.33 543.512 1905L599.776 1927.32C600.923 1927.77 602.03 1928.32 603.085 1928.96L653.642 1959.67C654.546 1960.22 655.41 1960.84 656.226 1961.51L696.358 1994.64C697.45 1995.55 698.453 1996.55 699.352 1997.65L732.5 2038L764.441 2087.58C765.476 2089.19 766.297 2090.92 766.884 2092.74L784.604 2147.67C785.525 2150.53 787.02 2153.16 788.999 2155.42L816.225 2186.48C817.404 2187.82 818.742 2189.02 820.211 2190.04L857.556 2216C858.517 2216.66 859.53 2217.25 860.585 2217.76L892.983 2233.33C895.956 2234.76 899.213 2235.5 902.511 2235.5H972.054C974.009 2235.5 975.956 2235.24 977.842 2234.72L993.608 2230.43C995.855 2229.81 997.991 2228.85 999.935 2227.56L1042.68 2199.36C1044.55 2198.13 1046.22 2196.62 1047.63 2194.88L1079.87 2155.23C1081.61 2153.1 1082.93 2150.65 1083.76 2148.03L1099.99 2097.1C1100.33 2096.03 1100.59 2094.95 1100.76 2093.84L1325 668.5L1338.25 588.048C1338.41 587.017 1338.66 586 1338.97 585.004L1361.51 513.547C1361.84 512.517 1362.24 511.512 1362.71 510.541L1388.26 458.023C1388.75 457.009 1389.32 456.035 1389.97 455.108L1427.5 401L1475.92 342.407C1476.97 341.14 1478.16 339.994 1479.46 338.991L1527.5 302L1585.6 264.407C1586.53 263.803 1587.51 263.271 1588.52 262.815L1654.87 232.959C1656.29 232.322 1657.77 231.836 1659.29 231.51L1731.72 215.988C1733.24 215.664 1734.78 215.5 1736.33 215.5H1844.8C1846.26 215.5 1847.72 215.646 1849.16 215.936L1894 225L1944.95 236.645C1945.98 236.881 1947 237.192 1947.98 237.574L2013 262.728C2014.33 263.242 2015.61 263.882 2016.81 264.642L2074.32 300.941C2075.44 301.646 2076.49 302.449 2077.46 303.342L2125 347L2157 383L2190.03 428.661C2190.68 429.552 2191.25 430.491 2191.76 431.469L2222.49 491.046C2223.16 492.346 2223.7 493.708 2224.1 495.114L2239 547.5L2247.76 606.903C2247.92 607.966 2248 609.039 2248 610.114V692.89C2248 696.571 2248.92 700.193 2250.69 703.425L2259.12 718.887C2259.71 719.961 2260.38 720.983 2261.14 721.945L2273.74 737.982C2275.56 740.304 2277.83 742.234 2280.42 743.659L2296.04 752.268C2299.29 754.06 2302.95 755 2306.66 755H2341.24C2345.02 755 2348.73 754.027 2352.02 752.175L2368.2 743.075C2370.06 742.03 2371.75 740.722 2373.23 739.191L2396.49 715.134C2398.8 712.742 2400.54 709.858 2401.57 706.697L2409.34 683.023C2409.78 681.677 2410.09 680.292 2410.26 678.887L2426 552.5L2439 461L2451 391.5L2465.5 335.5L2489.89 268.67C2490.3 267.559 2490.79 266.481 2491.37 265.449L2525 205.5L2562.5 156L2603.89 113.153C2604.63 112.385 2605.42 111.673 2606.27 111.021L2651 76.5L2706.57 41.5275C2708.18 40.5135 2709.92 39.7129 2711.74 39.1458L2771.5 20.5L2850.87 0.656865C2852.62 0.220602 2854.41 0 2856.21 0H2987.18C2989.05 0 2990.92 0.239411 2992.73 0.71242L3045.71 14.5323C3046.9 14.8435 3048.07 15.2546 3049.19 15.761L3103 40L3154.18 64.6228C3155.39 65.2064 3156.55 65.9 3157.63 66.695L3204.5 101L3261.06 154.15C3262.02 155.048 3262.89 156.03 3263.67 157.084L3304 211.5L3339.55 275.773C3340.18 276.922 3340.71 278.125 3341.13 279.369L3372.68 372.605C3373.55 375.179 3373.94 377.893 3373.82 380.608L3368 515L3240.5 1344L3214.5 1511.5L3196.5 1589L3164.57 1675.94C3164.19 1676.98 3163.73 1677.99 3163.2 1678.96L3118.72 1759.79C3117.91 1761.26 3116.93 1762.63 3115.81 1763.88L3061.87 1823.97C3060.96 1824.99 3059.95 1825.92 3058.87 1826.75L2995.84 1874.98C2994.95 1875.66 2994.01 1876.27 2993.02 1876.81L2906.03 1924.39C2904.68 1925.13 2903.26 1925.72 2901.78 1926.16L2828.59 1948.08C2826.54 1948.69 2824.41 1949 2822.28 1949H2678.3C2676.77 1949 2675.24 1948.84 2673.75 1948.52L2635.07 1940.33C2634.03 1940.11 2633 1939.81 2631.99 1939.44C2593.58 1929.83 2572.53 1922.31 2536.11 1903.97C2534.38 1903.32 2532.73 1902.47 2531.21 1901.41C2492.94 1877.52 2471.8 1862.87 2434.64 1834.48C2433.22 1833.5 2431.92 1832.35 2430.77 1831.06C2402.46 1804.61 2388.36 1789.09 2367.19 1759.9C2366.07 1758.64 2365.09 1757.25 2364.28 1755.77L2326 1685.5L2303.91 1632.19C2303.3 1630.74 2302.86 1629.22 2302.58 1627.66L2291.5 1566L2285.47 1539.3C2284.83 1536.46 2283.63 1533.78 2281.95 1531.41C2281.95 1531.41 2264.87 1506.9 2262.68 1504.28C2260.5 1501.66 2258.64 1499.69 2256.02 1498.12C2247.5 1493.04 2242.73 1490.19 2234.21 1485.11C2230.8 1483.07 2226.9 1482 2222.93 1482H2180.67C2176.95 1482 2173.29 1482.94 2170.04 1484.74L2146.62 1497.67C2143.26 1499.53 2140.45 1502.22 2138.46 1505.49L2122.76 1531.29C2121.27 1533.74 2120.27 1536.46 2119.82 1539.29L1932.5 2720.5L1922 2820.5L1905.43 2889.2C1905.15 2890.4 1904.76 2891.57 1904.27 2892.71L1881 2947L1851.5 3003.5L1813.68 3058.29C1812.89 3059.43 1812.01 3060.49 1811.02 3061.46L1775 3097L1726.41 3141.26C1725.14 3142.42 1723.74 3143.42 1722.24 3144.25L1648.5 3185L1583.06 3210.21C1581.69 3210.73 1580.27 3211.12 1578.82 3211.37L1517.82 3221.69C1516.61 3221.9 1515.38 3222 1514.15 3222H1394.53C1393.18 3222 1391.83 3221.88 1390.5 3221.63L1335.57 3211.39C1334.19 3211.13 1332.84 3210.74 1331.54 3210.23L1267.5 3185L1194.29 3144C1193.1 3143.34 1191.97 3142.56 1190.93 3141.68L1138.73 3098.03C1137.91 3097.34 1137.14 3096.6 1136.43 3095.8L1104.5 3060L1064.23 3005.17C1063.41 3004.06 1062.7 3002.87 1062.11 3001.63L1036 2947L1008.09 2895.99C1007.36 2894.67 1006.51 2893.42 1005.53 2892.27L980.05 2862.4C978.69 2860.81 977.11 2859.42 975.357 2858.27L939.991 2835.13C938.338 2834.05 936.546 2833.19 934.665 2832.59L887.777 2817.55C885.606 2816.85 883.339 2816.5 881.058 2816.5H844.214C842.082 2816.5 839.963 2816.81 837.921 2817.42L809.196 2825.99C808.067 2826.33 806.967 2826.76 805.907 2827.27L763.726 2847.68C761.917 2848.56 760.237 2849.68 758.732 2851.01L724.115 2881.63C722.711 2882.87 721.471 2884.29 720.426 2885.84L700.41 2915.66C699.144 2917.54 698.178 2919.61 697.546 2921.79L684 2968.5L665 3097L653.961 3167.07C653.655 3169.01 653.09 3170.91 652.28 3172.7L632.5 3216.5L583.614 3293.94C582.543 3295.64 581.245 3297.18 579.757 3298.53L521.799 3350.88C520.603 3351.96 519.292 3352.9 517.89 3353.69L443.534 3395.78C441.524 3396.92 439.347 3397.73 437.084 3398.2L386.172 3408.56C384.728 3408.85 383.258 3409 381.784 3409H276.973C275.33 3409 273.691 3408.82 272.088 3408.45L226.56 3398.08C224.859 3397.7 223.211 3397.11 221.649 3396.33L136.586 3354.03C134.541 3353.02 132.667 3351.69 131.031 3350.1L78.046 3298.49C76.6877 3297.17 75.5061 3295.68 74.5306 3294.05L29.7701 3219.45C28.5972 3217.5 27.7352 3215.37 27.2151 3213.15L0.58013 3099.48C0.19466 3097.83 0 3096.15 0 3094.46V2970.32Z" fill="url(#paint4_linear_416_22)"/>
</g>
<defs>
<linearGradient id="paint0_linear_416_22" x1="1100" y1="600.5" x2="292.5" y2="565.5" gradientUnits="userSpaceOnUse">
<stop stop-color="#048ED9"/>
<stop offset="1" stop-color="#0CA9FC"/>
</linearGradient>
<linearGradient id="paint1_linear_416_22" x1="3285.5" y1="3518" x2="2663" y2="2905" gradientUnits="userSpaceOnUse">
<stop stop-color="#00398E"/>
<stop offset="1" stop-color="#149AF9"/>
</linearGradient>
<linearGradient id="paint2_linear_416_22" x1="612" y1="1432" x2="188.5" y2="1401" gradientUnits="userSpaceOnUse">
<stop stop-color="#0592DE"/>
<stop offset="1" stop-color="#09A2F3"/>
</linearGradient>
<linearGradient id="paint3_linear_416_22" x1="2790.5" y1="2569.5" x2="2440" y2="2266" gradientUnits="userSpaceOnUse">
<stop stop-color="#0B66EF"/>
<stop offset="1" stop-color="#1598F9"/>
</linearGradient>
<linearGradient id="paint4_linear_416_22" x1="3374" y1="286" x2="-425" y2="3501.5" gradientUnits="userSpaceOnUse">
<stop offset="0.229473" stop-color="#1272FF"/>
<stop offset="0.394064" stop-color="#1697F9"/>
<stop offset="1" stop-color="#09AFFD"/>
</linearGradient>
</defs>
</svg>
