<svg width="403" height="125" viewBox="0 0 403 125" fill="none" xmlns="http://www.w3.org/2000/svg">
<ellipse cx="349.174" cy="69.5" rx="6.82649" ry="6.5" fill="#D9D9D9"/>
<path d="M342.413 69.5H327.413" stroke="#49A9D1" stroke-width="3"/>
<path d="M76 70H61" stroke="#49A9D1" stroke-width="3"/>
<ellipse cx="56.8265" cy="69.5" rx="6.82649" ry="6.5" fill="#D9D9D9"/>
<path d="M84.0886 85V39.9091H100.161C103.669 39.9091 106.575 40.5476 108.88 41.8246C111.184 43.1016 112.909 44.8482 114.054 47.0646C115.199 49.2663 115.771 51.7469 115.771 54.5064C115.771 57.2805 115.191 59.7758 114.032 61.9922C112.887 64.1939 111.155 65.9406 108.836 67.2322C106.531 68.5092 103.632 69.1477 100.139 69.1477H89.0865V63.3793H99.5226C101.739 63.3793 103.537 62.9976 104.917 62.2344C106.296 61.4564 107.309 60.3996 107.955 59.0639C108.601 57.7282 108.924 56.209 108.924 54.5064C108.924 52.8037 108.601 51.2919 107.955 49.9709C107.309 48.6499 106.289 47.6151 104.895 46.8665C103.515 46.1179 101.695 45.7436 99.4345 45.7436H90.8919V85H84.0886ZM123.218 85V51.1818H129.581V56.554H129.934C130.55 54.7339 131.636 53.3028 133.192 52.2607C134.763 51.2038 136.539 50.6754 138.52 50.6754C138.931 50.6754 139.416 50.6901 139.973 50.7195C140.546 50.7488 140.993 50.7855 141.316 50.8295V57.1264C141.052 57.053 140.583 56.9723 139.907 56.8842C139.232 56.7815 138.557 56.7301 137.882 56.7301C136.326 56.7301 134.939 57.0604 133.721 57.7209C132.517 58.3667 131.563 59.2694 130.858 60.429C130.154 61.5739 129.801 62.8802 129.801 64.348V85H123.218ZM160.047 85.6825C156.877 85.6825 154.11 84.956 151.747 83.5028C149.384 82.0497 147.549 80.0168 146.243 77.4041C144.936 74.7914 144.283 71.7384 144.283 68.245C144.283 64.737 144.936 61.6693 146.243 59.0419C147.549 56.4145 149.384 54.3743 151.747 52.9212C154.11 51.468 156.877 50.7415 160.047 50.7415C163.218 50.7415 165.985 51.468 168.348 52.9212C170.711 54.3743 172.546 56.4145 173.852 59.0419C175.158 61.6693 175.812 64.737 175.812 68.245C175.812 71.7384 175.158 74.7914 173.852 77.4041C172.546 80.0168 170.711 82.0497 168.348 83.5028C165.985 84.956 163.218 85.6825 160.047 85.6825ZM160.069 80.1562C162.124 80.1562 163.827 79.6132 165.177 78.527C166.528 77.4408 167.526 75.995 168.172 74.1896C168.832 72.3842 169.162 70.3954 169.162 68.223C169.162 66.0653 168.832 64.0838 168.172 62.2784C167.526 60.4583 166.528 58.9979 165.177 57.897C163.827 56.7962 162.124 56.2457 160.069 56.2457C158 56.2457 156.282 56.7962 154.917 57.897C153.567 58.9979 152.562 60.4583 151.901 62.2784C151.255 64.0838 150.932 66.0653 150.932 68.223C150.932 70.3954 151.255 72.3842 151.901 74.1896C152.562 75.995 153.567 77.4408 154.917 78.527C156.282 79.6132 158 80.1562 160.069 80.1562ZM183.16 51.1818H189.743V87.2017C189.743 89.4621 189.332 91.3703 188.51 92.9261C187.703 94.482 186.499 95.6636 184.899 96.4709C183.314 97.2782 181.354 97.6818 179.021 97.6818C178.786 97.6818 178.566 97.6818 178.36 97.6818C178.14 97.6818 177.912 97.6745 177.678 97.6598V92.0014C177.883 92.0014 178.067 92.0014 178.228 92.0014C178.375 92.0014 178.544 92.0014 178.734 92.0014C180.29 92.0014 181.413 91.5831 182.103 90.7464C182.808 89.9245 183.16 88.7282 183.16 87.1577V51.1818ZM186.418 45.9638C185.273 45.9638 184.29 45.5821 183.468 44.8189C182.661 44.041 182.257 43.1162 182.257 42.0447C182.257 40.9586 182.661 40.0339 183.468 39.2706C184.29 38.4927 185.273 38.1037 186.418 38.1037C187.563 38.1037 188.539 38.4927 189.347 39.2706C190.169 40.0339 190.58 40.9586 190.58 42.0447C190.58 43.1162 190.169 44.041 189.347 44.8189C188.539 45.5821 187.563 45.9638 186.418 45.9638ZM213.175 85.6825C209.843 85.6825 206.973 84.9706 204.566 83.5469C202.173 82.1084 200.324 80.0902 199.018 77.4922C197.726 74.8795 197.08 71.8191 197.08 68.3111C197.08 64.8471 197.726 61.794 199.018 59.152C200.324 56.5099 202.144 54.4477 204.478 52.9652C206.826 51.4827 209.571 50.7415 212.712 50.7415C214.62 50.7415 216.47 51.0571 218.26 51.6882C220.051 52.3194 221.658 53.3101 223.082 54.6605C224.506 56.0109 225.629 57.7649 226.451 59.9226C227.273 62.0656 227.684 64.6709 227.684 67.7386V70.0724H200.801V65.1406H221.233C221.233 63.4086 220.881 61.8748 220.176 60.5391C219.471 59.1887 218.481 58.1245 217.204 57.3466C215.941 56.5687 214.459 56.1797 212.756 56.1797C210.907 56.1797 209.292 56.6347 207.912 57.5447C206.547 58.4401 205.491 59.6143 204.742 61.0675C204.008 62.5059 203.641 64.0691 203.641 65.7571V69.6101C203.641 71.8705 204.037 73.7933 204.83 75.3786C205.637 76.9638 206.76 78.1747 208.199 79.0114C209.637 79.8333 211.318 80.2443 213.241 80.2443C214.488 80.2443 215.626 80.0682 216.653 79.7159C217.681 79.349 218.569 78.8059 219.317 78.0866C220.066 77.3674 220.638 76.4794 221.035 75.4226L227.265 76.5455C226.766 78.3802 225.871 79.9875 224.579 81.3672C223.302 82.7322 221.695 83.7964 219.758 84.5597C217.835 85.3082 215.64 85.6825 213.175 85.6825ZM250.774 51.1818V56.4659H232.302V51.1818H250.774ZM237.256 43.0795H243.839V75.0703C243.839 76.3473 244.03 77.3087 244.411 77.9545C244.793 78.5857 245.285 79.0187 245.886 79.2536C246.503 79.4737 247.171 79.5838 247.89 79.5838C248.418 79.5838 248.881 79.5471 249.277 79.4737C249.673 79.4003 249.982 79.3416 250.202 79.2976L251.391 84.7358C251.009 84.8826 250.466 85.0294 249.761 85.1761C249.057 85.3376 248.176 85.4257 247.119 85.4403C245.387 85.4697 243.773 85.1615 242.276 84.5156C240.778 83.8698 239.567 82.8717 238.643 81.5213C237.718 80.1709 237.256 78.4756 237.256 76.4354V43.0795ZM271.938 85.6825C268.768 85.6825 266.001 84.956 263.638 83.5028C261.274 82.0497 259.44 80.0168 258.133 77.4041C256.827 74.7914 256.174 71.7384 256.174 68.245C256.174 64.737 256.827 61.6693 258.133 59.0419C259.44 56.4145 261.274 54.3743 263.638 52.9212C266.001 51.468 268.768 50.7415 271.938 50.7415C275.108 50.7415 277.875 51.468 280.238 52.9212C282.602 54.3743 284.436 56.4145 285.743 59.0419C287.049 61.6693 287.702 64.737 287.702 68.245C287.702 71.7384 287.049 74.7914 285.743 77.4041C284.436 80.0168 282.602 82.0497 280.238 83.5028C277.875 84.956 275.108 85.6825 271.938 85.6825ZM271.96 80.1562C274.015 80.1562 275.718 79.6132 277.068 78.527C278.418 77.4408 279.416 75.995 280.062 74.1896C280.723 72.3842 281.053 70.3954 281.053 68.223C281.053 66.0653 280.723 64.0838 280.062 62.2784C279.416 60.4583 278.418 58.9979 277.068 57.897C275.718 56.7962 274.015 56.2457 271.96 56.2457C269.89 56.2457 268.173 56.7962 266.808 57.897C265.458 58.9979 264.452 60.4583 263.792 62.2784C263.146 64.0838 262.823 66.0653 262.823 68.223C262.823 70.3954 263.146 72.3842 263.792 74.1896C264.452 75.995 265.458 77.4408 266.808 78.527C268.173 79.6132 269.89 80.1562 271.96 80.1562ZM320.392 59.4382L314.425 60.495C314.176 59.7318 313.78 59.0052 313.237 58.3153C312.708 57.6255 311.989 57.0604 311.079 56.62C310.169 56.1797 309.031 55.9595 307.666 55.9595C305.802 55.9595 304.246 56.3778 302.999 57.2145C301.751 58.0365 301.127 59.1006 301.127 60.407C301.127 61.5372 301.545 62.4472 302.382 63.1371C303.219 63.8269 304.569 64.392 306.433 64.8324L311.805 66.0653C314.917 66.7846 317.236 67.8928 318.763 69.3899C320.289 70.8871 321.053 72.8319 321.053 75.2244C321.053 77.25 320.465 79.0554 319.291 80.6406C318.132 82.2112 316.51 83.4441 314.425 84.3395C312.356 85.2348 309.956 85.6825 307.226 85.6825C303.439 85.6825 300.349 84.8752 297.957 83.2607C295.564 81.6314 294.096 79.3196 293.553 76.3253L299.916 75.3565C300.313 77.0152 301.127 78.2701 302.36 79.1214C303.593 79.9581 305.2 80.3764 307.182 80.3764C309.339 80.3764 311.064 79.9287 312.356 79.0334C313.647 78.1233 314.293 77.0152 314.293 75.7088C314.293 74.652 313.897 73.764 313.104 73.0447C312.326 72.3255 311.13 71.7824 309.516 71.4155L303.791 70.1605C300.635 69.4413 298.302 68.2964 296.79 66.7259C295.293 65.1553 294.544 63.1664 294.544 60.7592C294.544 58.763 295.102 57.0163 296.217 55.5192C297.333 54.022 298.874 52.8551 300.841 52.0185C302.808 51.1671 305.061 50.7415 307.6 50.7415C311.255 50.7415 314.132 51.5341 316.231 53.1193C318.33 54.6899 319.717 56.7962 320.392 59.4382Z" fill="white"/>
</svg>
